<svg version="1.1" id="Layer_1" xmlns="http://www.w3.org/2000/svg" xmlns:xlink="http://www.w3.org/1999/xlink" x="0px" y="0px"
	 width="100%" viewBox="0 0 256 96" enable-background="new 0 0 256 96" xml:space="preserve">
<path fill="#000000" opacity="1.000000" stroke="none" 
	d="
M123.241104,96.677429 
	C102.979103,97.000000 82.958214,97.000000 62.468658,97.000000 
	C57.121445,93.697975 54.975147,88.338005 51.897678,83.668663 
	C50.546082,81.617928 51.382080,79.861275 52.238968,78.054802 
	C55.015373,72.201622 57.889709,66.393471 60.886421,60.652706 
	C62.948181,56.703030 62.796158,53.155540 60.297123,49.439117 
	C56.781231,44.210476 53.870865,38.594166 49.641163,32.138313 
	C49.408264,36.623756 49.304668,39.908836 49.974712,43.197941 
	C50.512276,45.836746 50.508492,48.476170 50.253872,51.131886 
	C50.085918,52.883614 49.504272,54.413147 47.681343,55.042053 
	C44.502697,56.138676 43.666916,58.583725 43.433064,61.650333 
	C42.916317,68.426697 41.581631,75.125343 41.458523,81.945045 
	C41.401436,85.107353 41.476982,88.237579 42.161129,91.357643 
	C42.538265,93.077568 43.167896,94.976517 41.247124,96.747017 
	C36.975456,97.000000 32.950912,97.000000 28.463184,97.000000 
	C26.046289,95.504120 25.735060,93.551178 26.079521,91.210289 
	C27.578953,81.020454 25.569466,70.979736 24.620804,60.896999 
	C24.429108,58.859608 23.914280,56.743343 21.993412,55.751297 
	C19.145746,54.280594 18.589613,51.888348 18.585842,49.092857 
	C18.577599,42.981407 18.236805,36.864632 18.802927,31.570501 
	C14.947523,38.425274 10.410441,45.725395 5.534039,52.811649 
	C4.591795,54.180893 3.102990,54.505497 1.283704,53.245224 
	C1.000000,36.588535 1.053489,20.176697 0.937923,3.766047 
	C0.921989,1.503453 1.268607,0.866376 3.706655,0.921704 
	C12.488069,1.120989 21.276749,1.000000 30.531342,1.000000 
	C32.348755,2.165918 32.521194,3.480472 31.536367,4.971710 
	C30.891973,5.947461 30.347179,6.980281 30.105396,8.137587 
	C29.622820,10.447469 30.091656,12.489511 32.103672,13.880754 
	C33.790718,15.047290 35.597378,14.963126 37.190369,13.661627 
	C39.089100,12.110331 39.299770,10.069677 38.778473,7.774376 
	C38.306152,5.694714 35.347523,4.097674 37.757195,1.247324 
	C109.560249,1.000000 181.120544,1.026154 252.680618,0.918832 
	C256.077087,0.913738 257.158844,1.352078 257.120209,5.169334 
	C256.881104,28.798435 257.000000,52.431160 257.000000,76.531342 
	C255.498108,78.528053 254.089737,78.168839 252.655518,76.853355 
	C249.487335,73.947479 245.531036,72.675278 241.518494,71.482063 
	C236.245102,69.913925 234.439407,67.869286 234.873581,64.198067 
	C235.309158,60.514763 238.023010,58.758099 243.498611,58.541138 
	C245.258560,58.471409 247.137192,58.891617 248.793640,57.647388 
	C242.993515,52.689125 229.974152,55.976112 227.610748,62.835697 
	C226.264160,66.744072 227.940292,70.637215 232.027710,72.839638 
	C234.676224,74.266739 237.681198,74.829422 240.402802,76.076447 
	C243.703079,77.588608 246.815018,79.450531 245.918732,83.846230 
	C245.072708,87.995529 241.886658,89.167381 238.094528,89.429214 
	C235.365219,89.617653 232.536911,88.951241 229.793457,89.920128 
	C230.302246,92.271347 231.981857,92.279907 233.390610,92.379417 
	C240.326035,92.869278 247.116379,92.654869 252.528564,87.339462 
	C253.697067,86.191856 254.893951,85.485855 256.741699,86.761566 
	C257.000000,90.321899 258.291351,94.896233 256.631165,96.607994 
	C255.020859,98.268341 250.379074,96.998276 247.068604,96.998497 
	C211.358170,97.000893 175.647751,97.000000 139.468658,97.000000 
	C136.865570,93.836182 139.610367,93.052032 141.507812,91.845451 
	C150.077774,86.395828 153.245621,78.718124 150.615189,69.786110 
	C146.846634,56.989468 128.657623,52.015556 117.498642,60.732239 
	C116.579544,61.450176 115.751549,62.271660 114.897102,63.063271 
	C110.965401,66.705864 110.445930,66.749153 107.345612,62.377506 
	C105.531937,59.820095 103.022835,59.636116 100.340477,59.372559 
	C95.406113,58.887722 94.505486,57.674416 94.624817,52.080391 
	C94.733521,46.984692 95.707130,46.105541 100.683823,45.543499 
	C103.316811,45.246143 106.387718,46.723194 108.433014,43.686325 
	C101.726372,40.061104 95.108490,40.773289 88.260086,43.713127 
	C86.610138,45.823776 86.510193,47.989094 86.503426,50.162033 
	C86.468719,61.295738 86.436455,72.429863 86.530174,83.562950 
	C86.550285,85.951225 86.114502,89.236145 89.589371,89.399498 
	C93.188164,89.568672 94.071144,86.444496 94.344879,83.511658 
	C94.777542,78.876228 94.513672,74.211769 94.573296,69.561096 
	C94.627129,65.362747 96.584129,63.499191 100.704597,63.595333 
	C102.529800,63.637917 104.371841,63.442089 106.178230,63.744354 
	C110.121727,64.404228 111.702019,66.334152 111.024506,70.215752 
	C109.342941,79.849693 112.497635,87.175316 120.967186,92.163765 
	C122.540497,93.090424 124.313995,93.957436 123.241104,96.677429 
z"/>
<path fill="#0CA854" opacity="1.000000" stroke="none" 
	d="
M113.408493,39.778778 
	C113.888756,40.829891 113.876411,41.669075 114.006241,42.485657 
	C114.672546,46.676659 113.323593,48.738564 108.702805,48.057816 
	C106.423462,47.722012 104.019035,48.255634 101.732277,47.945484 
	C97.475380,47.368134 96.838234,49.465675 96.903061,53.089878 
	C96.957268,56.120132 97.843933,57.429039 100.903656,57.010963 
	C101.556725,56.921734 102.232643,56.999077 102.898033,57.000771 
	C109.783386,57.018276 109.783386,57.018341 110.243195,64.215729 
	C114.624374,59.552856 118.879875,55.233131 125.275650,54.325890 
	C135.437042,52.884483 144.854630,54.523872 150.776321,63.564255 
	C155.444397,70.690804 155.427475,78.672081 151.199661,86.507660 
	C148.392548,91.710175 143.105972,93.352982 138.846664,96.645004 
	C133.977905,97.000000 128.955811,97.000000 123.466858,97.000000 
	C123.588837,94.792595 121.715050,95.288818 120.658417,94.825699 
	C110.519722,90.381943 105.841919,80.414108 108.761383,69.595238 
	C109.048004,68.533066 109.139328,67.418198 109.320969,66.329750 
	C97.001686,65.206200 97.001686,65.206200 97.001678,76.738541 
	C97.001678,78.070770 97.001686,79.403000 97.001678,80.735229 
	C97.001625,90.344955 96.935127,90.193581 88.399025,93.943687 
	C84.679451,95.577774 83.912422,94.629189 83.945465,90.890289 
	C84.092636,74.238861 84.036217,57.585648 84.131012,40.470619 
	C93.784409,38.891422 103.391029,39.739788 113.408493,39.778778 
z"/>
<path fill="#0CA854" opacity="1.000000" stroke="none" 
	d="
M1.000000,53.399994 
	C6.035507,51.243729 6.608397,45.994026 9.174418,42.346088 
	C13.390118,36.352917 17.152006,30.040525 21.454517,24.011410 
	C20.308990,32.453049 21.305929,40.799557 20.975760,49.115143 
	C20.875366,51.643627 21.302389,53.382843 24.409010,53.032085 
	C25.917656,52.861752 26.853188,53.412403 26.993902,55.197781 
	C27.601591,62.908142 28.155436,70.629044 29.052559,78.308289 
	C29.764376,84.401352 29.220161,90.313225 27.846142,96.596405 
	C20.979052,97.000000 13.958104,97.000000 6.468578,97.000000 
	C3.831493,95.303574 3.829933,93.242241 5.546131,91.419502 
	C12.374421,84.167274 10.970797,76.883842 5.944240,69.449234 
	C3.505242,65.841789 2.953859,61.495911 1.238861,57.255260 
	C1.000000,55.933331 1.000000,54.866661 1.000000,53.399994 
z"/>
<path fill="#0CA854" opacity="1.000000" stroke="none" 
	d="
M41.468533,97.000000 
	C37.143066,86.593658 39.351727,76.026024 40.403736,65.542343 
	C40.615177,63.435246 41.041092,61.298523 40.958435,59.178059 
	C40.815960,55.522919 40.885902,52.436626 46.011208,52.884201 
	C48.659325,53.115452 48.104080,50.650539 47.940758,49.219185 
	C47.021744,41.164944 46.677517,33.109898 47.212158,24.050816 
	C51.650875,29.192293 54.064072,34.669174 57.234180,39.626869 
	C58.736317,41.976055 59.634579,44.852482 61.526928,46.784245 
	C66.916840,52.286423 66.348862,57.629498 62.273048,63.491879 
	C60.598476,65.900467 59.907825,69.006371 58.178989,71.361526 
	C52.966328,78.462608 53.590214,84.838715 59.454376,91.251884 
	C60.524471,92.422173 62.712574,93.943024 61.763172,96.687805 
	C55.312355,97.000000 48.624710,97.000000 41.468533,97.000000 
z"/>
<path fill="#0CA854" opacity="1.000000" stroke="none" 
	d="
M257.000000,86.545891 
	C253.580368,88.891342 251.558655,92.695053 247.508621,93.766869 
	C240.835602,95.532867 234.176636,95.608627 227.468735,94.029694 
	C222.628098,92.890289 225.179657,89.080627 225.259674,86.723732 
	C225.373459,83.371956 228.014389,85.569969 229.309525,86.045753 
	C232.542282,87.233360 235.820923,87.014961 239.111923,86.959290 
	C241.558060,86.917915 243.220459,85.467453 243.783615,83.268562 
	C244.400009,80.861824 242.542480,79.683022 240.613358,78.912720 
	C238.642395,78.125710 236.607315,77.497795 234.594681,76.816917 
	C227.306946,74.351509 223.618423,70.205200 224.024719,64.922272 
	C224.437561,59.554207 229.177002,54.281723 235.706345,53.337933 
	C240.875320,52.590775 246.187424,52.530876 251.477737,53.864712 
	C255.868195,54.971668 253.838776,58.092361 253.796417,60.205738 
	C253.739594,63.041939 251.005020,62.210300 249.576401,61.660240 
	C247.098557,60.706211 244.650345,61.195534 242.197861,61.008350 
	C239.553452,60.806519 237.521378,61.752865 237.094070,64.535889 
	C236.606583,67.710831 239.227585,68.332184 241.425583,68.912285 
	C244.588181,69.746964 247.704941,70.570778 250.655838,72.081329 
	C253.106659,73.335892 254.572021,75.474434 256.668915,77.184814 
	C257.000000,80.030594 257.000000,83.061188 257.000000,86.545891 
z"/>
<path fill="#000000" opacity="1.000000" stroke="none" 
	d="
M1.000000,57.468658 
	C3.312012,56.322659 3.241534,58.577164 3.767571,59.581875 
	C7.044117,65.839958 10.015267,72.257759 13.281721,78.521416 
	C14.279891,80.435478 14.608538,81.800056 13.185955,83.732704 
	C10.963974,86.751366 9.238160,90.130440 7.160235,93.262680 
	C6.477007,94.292564 5.806081,95.135902 6.238853,96.689316 
	C1.941811,97.805565 0.716151,96.443207 0.867035,92.093658 
	C1.261572,80.720360 1.000000,69.324303 1.000000,57.468658 
z"/>
<path fill="#E83035" opacity="1.000000" stroke="none" 
	d="
M37.562500,1.000000 
	C36.963383,2.653064 38.712524,3.077009 39.382362,3.821848 
	C42.802116,7.624526 43.035381,12.336240 39.828060,15.647772 
	C36.816826,18.756847 32.380463,18.813200 29.302652,15.781468 
	C26.172541,12.698217 26.081408,7.233664 29.162193,3.759781 
	C29.905214,2.921952 30.835499,2.250199 31.339832,1.251037 
	C33.041668,1.000000 35.083332,1.000000 37.562500,1.000000 
z"/>
<path fill="#0CA854" opacity="1.000000" stroke="none" 
	d="
M187.923935,45.934387 
	C189.101639,45.585388 189.880203,45.324440 190.639694,45.016476 
	C194.847366,43.310307 196.818405,44.475479 195.997223,49.193390 
	C195.283875,53.291958 197.225723,54.286942 201.008118,54.086899 
	C206.320038,53.805954 211.668427,54.221783 216.981461,53.951492 
	C221.019119,53.746086 222.157288,55.378597 222.068024,59.208073 
	C221.858536,68.192223 222.019806,77.184639 221.990982,86.173576 
	C221.980301,89.503006 214.353333,95.551483 211.138351,94.734276 
	C209.255051,94.255562 210.056305,92.529907 210.044617,91.377495 
	C209.963669,83.388054 209.835251,75.392509 210.073685,67.409431 
	C210.178772,63.891289 209.056519,62.895012 205.574387,62.917957 
	C196.001434,62.981045 196.000381,62.822025 196.000229,72.245102 
	C196.000183,74.908516 196.000214,77.571938 196.000214,80.235352 
	C196.000214,91.534325 196.000214,91.534325 184.002289,95.351257 
	C184.002289,86.108078 183.846893,77.063217 184.067886,68.027565 
	C184.178284,63.513897 183.209808,62.138596 178.396408,63.702927 
	C171.088165,66.078064 168.190140,69.110764 168.008743,76.594833 
	C167.964401,78.424873 168.000107,80.256866 167.999939,82.087967 
	C167.999130,90.862228 167.605591,91.250893 159.198288,94.414497 
	C156.462433,95.443977 155.990814,94.453369 155.996155,92.100868 
	C156.021881,80.781425 156.101852,69.460716 155.958649,58.143040 
	C155.909119,54.227116 158.520844,54.882107 160.675110,55.069328 
	C162.743866,55.249119 166.159897,53.463799 165.997589,57.954185 
	C165.952682,59.196205 165.990738,60.441227 165.990738,63.269669 
	C169.808517,56.385925 174.590317,53.749897 180.847427,54.018978 
	C183.205200,54.120377 184.309204,53.252380 183.989227,50.870682 
	C183.617584,48.104572 184.702271,46.437847 187.923935,45.934387 
z"/>
<path fill="#0CA854" opacity="1.000000" stroke="none" 
	d="
M211.368622,47.858269 
	C209.172348,45.385788 210.270905,42.677341 210.064285,40.120819 
	C209.948547,38.688854 210.790253,38.039127 212.190094,38.038727 
	C213.515640,38.038345 214.841187,38.002457 216.166733,38.002396 
	C221.645126,38.002144 223.700882,41.101627 221.944672,46.426094 
	C221.440704,47.953995 220.422882,47.965782 219.280273,47.976646 
	C216.795197,48.000271 214.309509,47.960167 211.368622,47.858269 
z"/>
<path fill="#0CA854" opacity="1.000000" stroke="none" 
	d="
M113.622658,39.638866 
	C104.263245,40.001881 94.690956,40.002628 84.663651,40.005768 
	C85.951561,38.127567 88.216423,39.057682 90.217468,39.048481 
	C97.947723,39.012947 105.678932,39.183090 113.622658,39.638866 
z"/>
<path fill="#000000" opacity="1.000000" stroke="none" 
	d="
M140.387268,67.864143 
	C142.327698,72.132668 142.250671,76.070221 141.041656,80.186783 
	C139.587814,85.136993 136.205063,87.977684 131.059479,87.991158 
	C125.910583,88.004639 122.318367,85.176048 121.001083,80.304794 
	C119.507874,74.782906 119.522560,69.685791 124.068741,65.390060 
	C128.690659,61.022758 136.468887,62.010990 140.387268,67.864143 
z"/>
</svg>