<svg width="168" height="58" viewBox="0 0 168 58" fill="none" xmlns="http://www.w3.org/2000/svg">
<path d="M67.0626 50.7334H60.6793V56.0741H58.9487V44.1538H60.6793V49.1473H67.0626V44.1538H68.7931V56.0474H67.0626V50.7334Z" fill="#004084"/>
<path d="M74.7773 47.2192C77.285 47.2192 78.8446 49.238 78.8446 51.8762V52.2661H72.2385C72.2761 53.0056 72.5944 53.7003 73.1247 54.1999C73.655 54.6995 74.3547 54.9641 75.0726 54.9364C75.9927 54.9401 76.8785 54.5765 77.5441 53.9217L78.2746 54.9898C77.3628 55.856 76.1564 56.3165 74.9172 56.2716C73.7765 56.2545 72.6871 55.7803 71.8799 54.9495C71.0727 54.1186 70.611 52.9964 70.5928 51.8207C70.5747 50.645 71.0013 49.5082 71.7825 48.6512C72.5636 47.7942 73.6377 47.2844 74.7773 47.2299V47.2192ZM72.2178 51.1072H77.3213C77.3235 50.7647 77.2588 50.4252 77.1311 50.109C77.0034 49.7928 76.8152 49.5063 76.5778 49.2666C76.3405 49.027 76.0587 48.839 75.7494 48.7138C75.4401 48.5887 75.1095 48.529 74.7773 48.5384C74.11 48.5381 73.469 48.8065 72.9908 49.2864C72.5127 49.7662 72.2353 50.4196 72.2178 51.1072Z" fill="#004084"/>
<path d="M85.8135 55.1023C85.4645 55.4845 85.0404 55.7856 84.5695 55.9854C84.0987 56.1853 83.5919 56.2793 83.0829 56.2612C82.7084 56.2792 82.3341 56.2189 81.9828 56.0838C81.6314 55.9487 81.3103 55.7417 81.0387 55.4752C80.7671 55.2087 80.5506 54.8883 80.4024 54.5332C80.2542 54.1782 80.1773 53.7959 80.1763 53.4093C80.1763 51.4493 81.6788 50.5895 83.0829 50.5895C83.5914 50.563 84.0994 50.6515 84.5711 50.849C85.0428 51.0464 85.4669 51.348 85.8135 51.7324V50.3064C85.8135 49.2383 84.9689 48.5974 83.7721 48.5974C83.3007 48.5996 82.8348 48.7017 82.4034 48.8974C81.972 49.0931 81.5843 49.3782 81.2643 49.735L80.5908 48.6295C81.0399 48.1686 81.5748 47.8061 82.1634 47.5638C82.752 47.3215 83.382 47.2044 84.0156 47.2196C85.8342 47.2196 87.373 48.042 87.373 50.237V56.0476H85.8186L85.8135 55.1023ZM85.8135 52.6937C85.5528 52.3719 85.2237 52.1164 84.8517 51.9469C84.4797 51.7774 84.0748 51.6985 83.6684 51.7164C82.5441 51.7164 81.7514 52.4106 81.7514 53.4254C81.7514 54.4401 82.5441 55.1397 83.6684 55.1397C84.0752 55.1569 84.4804 55.0772 84.8524 54.9068C85.2244 54.7363 85.5533 54.4798 85.8135 54.157V52.6937Z" fill="#004084"/>
<path d="M89.9585 44.1538H91.5129V56.0474H89.9585V44.1538Z" fill="#004084"/>
<path d="M94.5489 54.1407V48.8428H93.1655V47.4329H94.5489V45.083H96.1033V47.4329H97.7976V48.8428H96.1033V53.7829C96.1033 54.3917 96.3779 54.851 96.9167 54.851C97.2301 54.8572 97.5334 54.7364 97.7613 54.5146L98.1603 55.7269C97.9368 55.9223 97.6779 56.0701 97.3987 56.1618C97.1194 56.2534 96.8253 56.2871 96.5333 56.2609C95.2277 56.2609 94.5489 55.4972 94.5489 54.1407Z" fill="#004084"/>
<path d="M105.502 50.5038C105.502 49.0779 104.792 48.6506 103.72 48.6506C103.27 48.6655 102.829 48.7852 102.431 49.0007C102.032 49.2162 101.687 49.522 101.419 49.895V56.0474H99.8647V44.1538H101.419V48.6506C101.785 48.2107 102.238 47.8557 102.747 47.609C103.256 47.3623 103.81 47.2295 104.372 47.2193C106.155 47.2193 107.056 48.1486 107.056 49.9697V56.0474H105.502V50.5038Z" fill="#004084"/>
<path d="M113.129 47.2194C113.728 47.1873 114.326 47.309 114.869 47.5738C115.411 47.8385 115.882 48.2379 116.238 48.7361L115.201 49.7188C114.981 49.378 114.679 49.101 114.326 48.914C113.972 48.7271 113.578 48.6364 113.181 48.6507C111.533 48.6507 110.481 49.9484 110.481 51.7322C110.481 53.516 111.517 54.8351 113.181 54.8351C113.577 54.8449 113.97 54.7523 114.323 54.5657C114.676 54.3792 114.978 54.1046 115.201 53.767L116.238 54.7443C115.882 55.2426 115.411 55.642 114.869 55.9067C114.326 56.1714 113.728 56.2932 113.129 56.261C110.606 56.261 108.875 54.3171 108.875 51.7322C108.875 49.1474 110.606 47.2194 113.129 47.2194Z" fill="#004084"/>
<path d="M123.269 55.1023C122.919 55.4846 122.494 55.7857 122.022 55.9856C121.55 56.1854 121.043 56.2793 120.533 56.2612C120.159 56.2792 119.784 56.2189 119.433 56.0838C119.082 55.9487 118.76 55.7416 118.489 55.4751C118.217 55.2087 118.001 54.8882 117.853 54.5332C117.704 54.1781 117.627 53.7958 117.626 53.4093C117.626 51.4493 119.134 50.5894 120.533 50.5894C121.042 50.5632 121.551 50.6519 122.024 50.8493C122.496 51.0467 122.921 51.3481 123.269 51.7323V50.3064C123.269 49.2383 122.419 48.5974 121.227 48.5974C120.756 48.5986 120.29 48.7002 119.858 48.896C119.427 49.0917 119.039 49.3774 118.72 49.7349L118.041 48.6294C118.49 48.1688 119.025 47.8064 119.614 47.5642C120.202 47.3219 120.832 47.2047 121.466 47.2195C123.284 47.2195 124.823 48.042 124.823 50.237V56.0476H123.269V55.1023ZM123.269 52.6936C123.008 52.3719 122.679 52.1163 122.307 51.9468C121.935 51.7773 121.53 51.6985 121.124 51.7163C119.999 51.7163 119.202 52.4106 119.202 53.4253C119.202 54.44 120.01 55.1557 121.124 55.1557C121.531 55.1729 121.936 55.0932 122.308 54.9228C122.68 54.7523 123.009 54.4958 123.269 54.173V52.6936Z" fill="#004084"/>
<path d="M127.352 47.433H128.906V48.7467C129.221 48.298 129.631 47.9288 130.105 47.667C130.579 47.4052 131.104 47.2576 131.642 47.2354V48.8375C131.471 48.8005 131.298 48.7826 131.124 48.7841C130.691 48.8128 130.27 48.9391 129.891 49.1541C129.511 49.3692 129.182 49.6677 128.927 50.0285V56.0207H127.372L127.352 47.433Z" fill="#004084"/>
<path d="M136.641 47.2192C139.149 47.2192 140.703 49.238 140.703 51.8763V52.2661H134.097C134.135 53.0057 134.453 53.7003 134.984 54.1999C135.514 54.6995 136.214 54.9641 136.932 54.9364C137.853 54.9404 138.741 54.5768 139.408 53.9217L140.134 54.9898C139.223 55.8575 138.016 56.3183 136.776 56.2716C135.636 56.2535 134.547 55.7785 133.74 54.9472C132.934 54.1159 132.473 52.9936 132.456 51.8181C132.438 50.6426 132.865 49.5062 133.647 48.6498C134.428 47.7934 135.502 47.2841 136.641 47.2299V47.2192ZM134.051 51.1072H139.18C139.183 50.765 139.119 50.4256 138.992 50.1094C138.865 49.7932 138.677 49.5067 138.44 49.2669C138.203 49.0272 137.922 48.8391 137.613 48.7139C137.304 48.5887 136.973 48.529 136.641 48.5384C135.976 48.5447 135.338 48.8152 134.86 49.2935C134.382 49.7718 134.102 50.4213 134.077 51.1072H134.051Z" fill="#004084"/>
<path d="M45.5757 1.41846V42.4344C45.5741 43.3869 45.3512 44.3251 44.9258 45.1706C44.5003 46.0161 43.8846 46.7443 43.1301 47.2943L32.0578 55.4174C31.05 56.1566 29.844 56.5542 28.6071 56.555H17.9752C16.7383 56.5542 15.5323 56.1566 14.5245 55.4174L3.43139 47.2943C2.67757 46.7437 2.06234 46.0154 1.63694 45.17C1.21155 44.3246 0.988311 43.3867 0.98584 42.4344V1.41846H45.5757Z" fill="#004084"/>
<path d="M29.0371 27.4699H17.5399C16.5362 27.4695 15.5424 27.6731 14.6151 28.069C13.6878 28.4649 12.8454 29.0453 12.1359 29.777L5.4624 36.6611H14.3742V45.8523L23.2859 36.6611L32.2028 45.8523V36.6611H41.1198L34.4411 29.777C33.7318 29.045 32.8894 28.4645 31.9621 28.0686C31.0348 27.6727 30.0408 27.4692 29.0371 27.4699ZM17.5399 26.8503H29.0371C30.0408 26.8509 31.0348 26.6475 31.9621 26.2516C32.8894 25.8557 33.7318 25.2751 34.4411 24.5432L41.1198 17.6805H32.2028V8.49463L23.2911 17.6805L14.3742 8.49463V17.6805H5.4624L12.1359 24.5646C13.5722 26.0345 15.5159 26.8566 17.5399 26.8503Z" fill="#45C0BE"/>
<path d="M30.3118 24.9011H25.6953V20.1479H21.2964V24.9011H16.6851V29.4406H21.2964V34.1938H25.6953V29.4406H30.3118V24.9011Z" fill="white"/>
<path d="M119.119 1.41846H110.606L96.9429 36.6238H105.663L108.254 29.3125H121.564L124.155 36.6238H132.87L119.119 1.41846ZM119.284 22.861H110.476L114.875 10.4227L119.284 22.861Z" fill="#004084"/>
<path d="M154.366 18.5298L166.226 1.41846H156.48L149.009 12.826L141.439 1.41846H131.797L143.657 18.5832L131.025 36.6238H140.672L149.009 24.3831L157.304 36.6238H166.998L154.366 18.5298Z" fill="#004084"/>
<path d="M86.7099 1.41846L76.5494 16.1692L66.389 1.41846H58.9487V36.6238H66.9745V14.6899L76.5494 28.0788L86.1244 14.6899V36.6238H94.1502V1.41846H86.7099Z" fill="#004084"/>
</svg>
