<?xml version="1.0" encoding="utf-8"?>
<!-- Generator: Adobe Illustrator 26.3.1, SVG Export Plug-In . SVG Version: 6.00 Build 0)  -->
<svg version="1.1" id="Layer_1" xmlns="http://www.w3.org/2000/svg" xmlns:xlink="http://www.w3.org/1999/xlink" x="0px" y="0px"
	 viewBox="0 0 168 60" style="enable-background:new 0 0 168 60;" xml:space="preserve">
<style type="text/css">
	.st0{fill:none;}
	.st1{fill:#FFFFFF;}
	.st2{fill-rule:evenodd;clip-rule:evenodd;fill:#84BE52;}
	.st3{fill-rule:evenodd;clip-rule:evenodd;fill:#FFFFFF;}
</style>
<g>
	<g>
		<g>
			<g>
				<path class="st0" d="M1,12.1h166v35.9H1V12.1z"/>
				<path class="st1" d="M24.4,21.7l-7.9-2.6v8.2H8.6l-0.3,8.6l8.2,4.9c4.3,0.8,6.9,1,7.9,0.8c1.5-0.4,6.7-4.3,7.4-6.6
					c0.7-2.3,0.5-5.8-0.4-7.6C30.8,26.2,28.4,24.3,24.4,21.7z"/>
				<path class="st2" d="M31.8,34.9L31.8,34.9c-1.2,3.4-4.1,5.8-7.4,6.7v-6.7H31.8z M1.7,24.8c2-5.2,7.9-8,13.4-6.2l1.4,0.5v8.3H8.6
					v7.6h7.9v5.8l-5.5-1.8l0,0L8.2,38c-5.5-1.8-8.4-7.5-6.7-12.8L1.7,24.8z M24.3,21.7l0.8,0.3c2.9,0.9,5.1,3,6.2,5.4h-7V21.7z"/>
				<g>
					<path class="st3" d="M135.6,25.8c0.5,0,0.9,0,1.3,0c0.4,0,0.7,0.1,1.1,0.2c0.3,0.1,0.7,0.2,1,0.3c0.3,0.1,0.6,0.3,0.9,0.5
						l0.1,0.1l0,0.1c0.1,0.3,0.1,0.6,0.1,0.9c0,0.2,0,0.5,0,0.7V29l-0.4-0.3c-0.2-0.1-0.4-0.3-0.6-0.4c-0.2-0.1-0.5-0.3-0.8-0.4
						c-0.3-0.1-0.6-0.2-1-0.3c-0.4-0.1-0.9-0.2-1.4-0.2c-0.3,0-0.6,0-0.9,0.1c-0.3,0.1-0.5,0.2-0.8,0.3c-0.2,0.1-0.4,0.3-0.5,0.5
						c-0.1,0.2-0.2,0.4-0.2,0.6c0,0.2,0.1,0.5,0.2,0.6c0.1,0.2,0.3,0.4,0.6,0.5c0.3,0.2,0.5,0.3,0.9,0.5c0.3,0.1,0.7,0.3,1.1,0.4
						c0.5,0.2,1,0.4,1.4,0.6c0.5,0.2,0.9,0.5,1.3,0.8c0.4,0.3,0.7,0.7,1,1.1c0.3,0.4,0.4,1,0.4,1.6c0,0.7-0.2,1.3-0.5,1.8
						c-0.3,0.5-0.7,0.9-1.2,1.2c-0.5,0.3-1,0.5-1.7,0.7c-0.6,0.1-1.2,0.2-1.8,0.2c-0.7,0-1.3-0.1-2-0.1c-0.7-0.1-1.4-0.2-2.1-0.4
						l-0.1,0l-0.3-2.3l0.4,0.3c0.6,0.4,1.2,0.7,1.7,0.8c0.6,0.1,1.3,0.2,2,0.1c0.4,0,0.7,0,1-0.1c0.3-0.1,0.6-0.2,0.9-0.4
						c0.2-0.2,0.4-0.3,0.6-0.6c0.1-0.2,0.2-0.5,0.2-0.7c0-0.3-0.1-0.5-0.2-0.6c-0.1-0.2-0.3-0.4-0.6-0.5c-0.2-0.2-0.5-0.3-0.9-0.4
						c-0.3-0.1-0.7-0.3-1.1-0.4c-0.5-0.2-1-0.3-1.4-0.5c-0.5-0.2-0.9-0.5-1.3-0.7c-0.4-0.3-0.7-0.7-1-1.1c-0.3-0.4-0.4-1-0.4-1.6
						c0-0.5,0.1-1,0.4-1.5c0.3-0.4,0.6-0.8,1.1-1.1c0.4-0.3,1-0.5,1.5-0.7C134.4,25.9,135,25.8,135.6,25.8L135.6,25.8z M75.2,19.9v6
						h2.9v1.9h-2.9v8.6h0l0,0.5c0,0.3,0.1,0.8,0.6,0.8c0.2,0,0.7,0.1,0.9,0.1l0.2,0l0,0.7c-0.5,0.1-1.4,0.1-2.1,0.1
						c-0.5,0-0.9,0-1.3-0.1c-0.4-0.1-0.7-0.2-0.9-0.3c-0.2-0.1-0.4-0.3-0.5-0.5c-0.1-0.2-0.2-0.4-0.2-0.6v-1.8h0v-7.5h-3v-1.9h2.9
						v-4.1L75.2,19.9L75.2,19.9z M129.8,19.8v12.4c0,1-0.2,1.8-0.4,2.6c-0.3,0.8-0.7,1.4-1.2,2c-0.5,0.5-1.2,1-2.1,1.3
						c-0.8,0.3-1.9,0.4-3,0.4c-1.1,0-2.1-0.1-2.9-0.4c-0.8-0.3-1.5-0.7-2-1.3c-0.5-0.5-0.9-1.2-1.2-2c-0.3-0.8-0.4-1.6-0.4-2.6
						c0-1,0.2-1.9,0.4-2.6c0.3-0.8,0.7-1.5,1.2-2c0.5-0.6,1.2-1,2-1.3c0.8-0.3,1.8-0.5,2.9-0.5c0.8,0,1.5,0.1,2.1,0.3
						c0.5,0.1,0.9,0.3,1.3,0.5l0.1-6.7H129.8L129.8,19.8z M109.2,26.1c1,0,1.8,0.2,2.6,0.5c0.8,0.3,1.5,0.8,2,1.3
						c0.6,0.6,1,1.2,1.3,2c0.3,0.7,0.4,1.5,0.4,2.4c0,0.1,0,0.2,0,0.4c0,0.2,0,0.3,0,0.4v0.2h-9.3c0.1,0.4,0.1,0.7,0.2,1.1
						c0.1,0.4,0.4,0.9,0.6,1.2c0.3,0.4,0.7,0.7,1.2,0.9c0.5,0.2,1.1,0.4,1.8,0.4c0.6,0,1.4-0.1,2.5-0.4l0.2-0.1l0.3,1.2l-0.2,0.1
						c-0.5,0.2-1.1,0.4-1.6,0.6c-0.5,0.2-1,0.3-1.5,0.3c-0.1,0-0.2,0-0.3,0c-0.9,0-1.8-0.2-2.5-0.5c-0.8-0.3-1.5-0.7-2-1.3
						c-0.6-0.5-1-1.2-1.4-2c-0.3-0.8-0.5-1.6-0.6-2.5c0-0.8,0.2-1.6,0.5-2.4c0.3-0.7,0.8-1.4,1.3-2c0.6-0.6,1.2-1,2-1.3
						C107.5,26.3,108.3,26.2,109.2,26.1z M63.4,26.1c1,0,1.8,0.2,2.6,0.5c0.8,0.3,1.5,0.8,2,1.3c0.6,0.6,1,1.2,1.3,2
						c0.3,0.7,0.4,1.5,0.4,2.4c0,0.1,0,0.2,0,0.4c0,0.1,0,0.3,0,0.4v0.2h-9.4c0.1,0.4,0.1,0.7,0.3,1.1c0.1,0.4,0.3,0.9,0.6,1.2
						c0.3,0.4,0.7,0.7,1.2,0.9c0.5,0.2,1.1,0.4,1.8,0.4c0.6,0,1.4-0.1,2.5-0.4l0.2-0.1l0.3,1.2L67,37.6c-0.5,0.2-1.1,0.4-1.6,0.6
						c-0.5,0.2-1,0.3-1.5,0.3c-0.1,0-0.2,0-0.3,0c-0.9,0-1.8-0.2-2.5-0.5c-0.8-0.3-1.5-0.7-2-1.3c-0.6-0.5-1-1.2-1.4-2
						c-0.3-0.8-0.5-1.6-0.6-2.5c0-0.8,0.2-1.6,0.5-2.4c0.3-0.7,0.8-1.4,1.3-2c0.6-0.6,1.2-1,2-1.3C61.7,26.3,62.5,26.2,63.4,26.1z
						 M95.2,25.9c1.1,0,2.1,0.2,3,0.5c0.8,0.3,1.5,0.8,2,1.3c0.5,0.6,0.9,1.3,1.1,2.1c0.2,0.8,0.3,1.7,0.3,2.7v6h-3.3v-6.7
						c0-0.8-0.1-1.5-0.2-2c-0.1-0.5-0.3-0.9-0.6-1.2c-0.2-0.3-0.5-0.5-0.9-0.6c-0.4-0.1-0.8-0.2-1.3-0.2l-0.2,0
						c-0.4,0-0.8,0.1-1.2,0.2c-0.4,0.1-0.7,0.3-1,0.6c-0.3,0.3-0.5,0.7-0.7,1.2c-0.2,0.5-0.2,1.2-0.2,2c0,0.1,0,0.2,0,0.3
						c0,0.1,0,0.4,0,0.8v5.6h-3.3v-6.7c0-0.8-0.1-1.4-0.2-1.9c-0.1-0.5-0.3-0.9-0.6-1.2c-0.2-0.3-0.5-0.5-0.9-0.6
						c-0.4-0.1-0.8-0.2-1.3-0.2l-0.2,0c-0.4,0-0.8,0.1-1.2,0.2c-0.4,0.1-0.7,0.3-1,0.6c-0.3,0.3-0.5,0.7-0.7,1.2
						c-0.2,0.5-0.2,1.2-0.2,2v6.6H79v-5.9c0-2,0.6-3.7,1.7-4.8c1.1-1.2,2.8-1.8,4.8-1.8c1.2,0,2.2,0.2,3,0.5
						c0.7,0.3,1.4,0.7,1.8,1.2c0.5-0.5,1.2-1,1.9-1.3C93.1,26.1,94.1,25.9,95.2,25.9z M49.4,26c1.1,0,2.1,0.2,3,0.5
						c0.8,0.3,1.5,0.8,2,1.3c0.5,0.6,0.9,1.3,1.1,2.1c0.2,0.8,0.3,1.7,0.3,2.7v5.9h-3.3v-6.6c0-0.8-0.1-1.5-0.2-2
						c-0.1-0.5-0.3-0.9-0.6-1.2c-0.2-0.3-0.5-0.5-0.9-0.6c-0.4-0.1-0.8-0.2-1.3-0.2l-0.2,0c-0.4,0-0.8,0.1-1.2,0.2
						c-0.4,0.1-0.7,0.3-1,0.6c-0.3,0.3-0.5,0.7-0.7,1.2c-0.2,0.5-0.2,1.2-0.2,2v6.6h-3.3v-5.9c0-2,0.6-3.7,1.7-4.8
						C45.6,26.6,47.3,26,49.4,26L49.4,26z M123.3,27.7l-0.1,0l-0.2,0c-0.4,0-0.8,0.1-1.2,0.2c-0.4,0.1-0.7,0.4-1,0.7
						c-0.3,0.3-0.5,0.8-0.7,1.3c-0.2,0.5-0.2,1.2-0.2,2v0.9c0,0.8,0.1,1.5,0.2,2c0.2,0.5,0.4,0.9,0.7,1.2c0.3,0.3,0.6,0.5,1,0.6
						c0.4,0.1,0.9,0.2,1.4,0.2l0.2,0c0.4,0,0.8-0.1,1.2-0.2c0.4-0.1,0.7-0.3,1-0.6c0.3-0.3,0.5-0.7,0.7-1.2c0.2-0.5,0.2-1.2,0.2-2
						v-0.9c0-0.8-0.1-1.5-0.2-2c-0.2-0.5-0.4-1-0.7-1.3c-0.3-0.3-0.6-0.6-1-0.7C124.2,27.7,123.7,27.7,123.3,27.7z M109.2,27.9
						L109.2,27.9c-0.5,0-0.9,0.1-1.3,0.3c-0.3,0.2-0.7,0.5-0.9,0.8c-0.2,0.3-0.4,0.7-0.6,1.1c-0.1,0.4-0.2,0.7-0.3,1.1h6.1
						c-0.1-1.2-0.5-2-1-2.5C110.8,28.2,110.1,27.9,109.2,27.9z M63.4,27.9L63.4,27.9c-0.5,0-0.9,0.1-1.3,0.3
						c-0.4,0.2-0.7,0.5-0.9,0.8c-0.2,0.3-0.4,0.7-0.6,1.1c-0.1,0.4-0.2,0.7-0.3,1.1h6.1c-0.1-1.2-0.5-2-1-2.5
						C64.9,28.2,64.3,27.9,63.4,27.9z M141.3,23.8h-0.9v-0.2h2v0.2h-0.9v2.4h-0.2V23.8 M143.1,23.6h0.2l1.1,1.5l1.1-1.5h0.2v2.5
						h-0.2v-2.2l-1,1.5h0l-1-1.5v2.2h-0.2V23.6 M141.4,38.5h1.1v-1.2h-1.1V38.5z M146.7,38.7c-0.5,0-0.9-0.1-1.3-0.3
						c-0.4-0.2-0.7-0.4-1-0.7c-0.3-0.3-0.5-0.6-0.7-1c-0.2-0.4-0.2-0.8-0.2-1.2v0c0-0.4,0.1-0.8,0.2-1.2c0.2-0.4,0.4-0.7,0.7-1
						c0.3-0.3,0.6-0.5,1-0.7s0.8-0.3,1.3-0.3c0.3,0,0.6,0,0.8,0.1c0.2,0.1,0.5,0.1,0.7,0.2c0.2,0.1,0.4,0.2,0.6,0.4
						c0.2,0.1,0.3,0.3,0.5,0.4l-0.6,0.6c-0.3-0.3-0.5-0.5-0.8-0.7c-0.3-0.2-0.7-0.3-1.1-0.3c-0.3,0-0.6,0.1-0.9,0.2
						c-0.3,0.1-0.5,0.3-0.7,0.5c-0.2,0.2-0.4,0.5-0.5,0.8c-0.1,0.3-0.2,0.6-0.2,0.9v0c0,0.3,0.1,0.6,0.2,0.9
						c0.1,0.3,0.3,0.5,0.5,0.8c0.2,0.2,0.5,0.4,0.7,0.5c0.3,0.1,0.6,0.2,0.9,0.2c0.4,0,0.8-0.1,1.1-0.3c0.3-0.2,0.6-0.4,0.9-0.7
						l0.6,0.5c-0.3,0.3-0.7,0.6-1.1,0.9C147.8,38.6,147.3,38.7,146.7,38.7 M153,37.9c0.3,0,0.7-0.1,0.9-0.2c0.3-0.1,0.5-0.3,0.7-0.5
						c0.2-0.2,0.4-0.5,0.5-0.7c0.1-0.3,0.2-0.6,0.2-0.9v0c0-0.3-0.1-0.6-0.2-0.9c-0.1-0.3-0.3-0.5-0.5-0.8c-0.2-0.2-0.5-0.4-0.7-0.5
						c-0.3-0.1-0.6-0.2-0.9-0.2c-0.3,0-0.7,0.1-0.9,0.2c-0.3,0.1-0.5,0.3-0.7,0.5c-0.2,0.2-0.4,0.5-0.5,0.8
						c-0.1,0.3-0.2,0.6-0.2,0.9v0c0,0.3,0.1,0.6,0.2,0.9c0.1,0.3,0.3,0.5,0.5,0.8c0.2,0.2,0.5,0.4,0.7,0.5
						C152.4,37.8,152.7,37.9,153,37.9 M153,38.7c-0.5,0-0.9-0.1-1.3-0.3c-0.4-0.2-0.8-0.4-1-0.7c-0.3-0.3-0.5-0.6-0.7-1
						c-0.2-0.4-0.2-0.8-0.2-1.2v0c0-0.4,0.1-0.8,0.2-1.2c0.2-0.4,0.4-0.7,0.7-1c0.3-0.3,0.6-0.5,1-0.7c0.4-0.2,0.9-0.3,1.3-0.3
						c0.5,0,0.9,0.1,1.3,0.3c0.4,0.2,0.8,0.4,1,0.7c0.3,0.3,0.5,0.6,0.7,1c0.2,0.4,0.2,0.8,0.2,1.2v0c0,0.4-0.1,0.8-0.3,1.2
						c-0.2,0.4-0.4,0.7-0.7,1c-0.3,0.3-0.6,0.5-1.1,0.7S153.4,38.7,153,38.7 M157.3,32.4h0.9v1c0.1-0.2,0.2-0.3,0.3-0.4
						c0.1-0.1,0.3-0.3,0.4-0.4c0.2-0.1,0.3-0.2,0.6-0.3c0.2-0.1,0.4-0.1,0.7-0.1c0.5,0,0.9,0.1,1.3,0.3c0.3,0.2,0.6,0.5,0.8,0.9
						c0.1-0.2,0.2-0.3,0.4-0.5c0.1-0.2,0.3-0.3,0.5-0.4c0.2-0.1,0.4-0.2,0.6-0.3c0.2-0.1,0.5-0.1,0.8-0.1c0.7,0,1.3,0.2,1.7,0.7
						c0.4,0.4,0.6,1,0.6,1.8v3.8H166V35c0-0.6-0.1-1-0.4-1.4c-0.3-0.3-0.7-0.5-1.2-0.5c-0.2,0-0.5,0-0.7,0.1
						c-0.2,0.1-0.4,0.2-0.6,0.4c-0.2,0.2-0.3,0.4-0.4,0.6c-0.1,0.2-0.1,0.5-0.1,0.8v3.5h-0.9v-3.6c0-0.6-0.1-1-0.4-1.3
						c-0.3-0.3-0.7-0.5-1.2-0.5c-0.3,0-0.5,0-0.7,0.1c-0.2,0.1-0.4,0.2-0.6,0.4c-0.2,0.2-0.3,0.4-0.4,0.6c-0.1,0.2-0.1,0.5-0.1,0.8
						v3.5h-0.9V32.4"/>
				</g>
			</g>
		</g>
	</g>
</g>
</svg>
