<svg version="1.1" id="Layer_1" xmlns="http://www.w3.org/2000/svg" xmlns:xlink="http://www.w3.org/1999/xlink" x="0px" y="0px"
	 width="100%" viewBox="0 0 500 500" enable-background="new 0 0 500 500" xml:space="preserve">
<path fill="#FFFFFF" opacity="1.000000" stroke="none" 
	d="
M465.000000,501.000000 
	C311.500031,501.000000 158.500061,500.984009 5.500177,501.093964 
	C1.751027,501.096649 0.903618,500.249725 0.906112,496.500061 
	C1.014954,332.833496 1.014940,169.166840 0.906176,5.500291 
	C0.903685,1.751457 1.749863,0.903597 5.499832,0.906091 
	C169.166382,1.014958 332.833038,1.014935 496.499603,0.906196 
	C500.248138,0.903706 501.096466,1.749467 501.093964,5.499712 
	C500.985077,169.166260 500.985077,332.832916 501.093781,496.499481 
	C501.096252,500.247742 500.266052,501.212341 496.497467,501.103149 
	C486.172638,500.803925 475.833496,501.000000 465.000000,501.000000 
z"/>
<path fill="#333333" opacity="1.000000" stroke="none" 
	d="
M297.706116,254.345428 
	C295.874634,255.359222 299.857727,258.557190 296.563843,259.236786 
	C293.998688,259.766022 292.482025,257.391479 290.798431,255.818619 
	C287.364410,252.610474 284.945709,248.670563 282.717163,244.181503 
	C280.703430,246.515549 281.766937,249.135193 281.157471,251.367584 
	C280.838806,252.534958 281.035828,254.544373 279.460632,254.506958 
	C278.297272,254.479340 276.248474,254.482346 275.927795,252.506546 
	C275.403351,249.274933 273.746002,250.428192 272.114746,251.439514 
	C267.159424,254.511673 261.380737,253.715225 256.006775,254.801331 
	C254.388687,255.128357 253.641586,253.608734 254.142715,252.088730 
	C256.536987,244.826263 255.499329,237.074158 257.412292,229.752060 
	C257.810577,228.227600 257.688263,226.483673 260.238495,226.576324 
	C264.061401,226.715210 267.898651,226.415207 271.730499,226.377487 
	C273.028809,226.364685 274.720551,226.320908 274.830627,228.056946 
	C274.944641,229.855637 273.456268,230.592453 271.839355,230.750381 
	C269.075195,231.020386 266.317047,230.803177 263.927826,232.956268 
	C262.712067,234.051849 262.458740,235.136078 262.630554,236.353836 
	C262.882965,238.142853 264.399200,237.280411 265.444214,237.332230 
	C268.216492,237.469711 272.533112,235.448792 273.131897,238.944901 
	C273.532196,241.281769 268.606049,241.480179 266.070801,242.001556 
	C262.310699,242.774811 259.336914,243.843536 258.096344,247.992477 
	C263.897827,248.965286 269.706879,245.761887 275.416595,248.839615 
	C276.635132,244.743088 277.903229,240.696671 279.011322,236.606934 
	C279.299225,235.544312 279.584290,233.819397 279.026642,233.293243 
	C274.304108,228.837494 278.806000,228.071945 281.575958,226.859848 
	C285.694489,225.057632 291.947632,226.784561 293.685516,229.981781 
	C295.420166,233.172974 293.288635,240.220993 289.890808,242.491028 
	C289.036713,243.061646 287.079926,243.399017 288.555115,244.797226 
	C291.800079,247.872787 293.221008,252.566315 297.706116,254.345428 
z"/>
<path fill="#333333" opacity="1.000000" stroke="none" 
	d="
M211.636246,238.190399 
	C214.221588,235.091309 216.945618,231.995514 220.096329,229.266251 
	C224.676376,225.298843 229.762726,226.236343 232.719177,231.918823 
	C226.484726,230.980331 222.054916,233.388611 218.955399,238.647598 
	C217.255081,241.532532 217.862823,244.432755 218.316635,247.363098 
	C218.669113,249.639069 220.466431,249.134369 221.823257,248.714813 
	C224.339050,247.936890 226.734634,246.824524 228.448898,244.682220 
	C229.338516,243.570496 230.455658,243.467377 231.428741,244.298920 
	C232.297379,245.041168 231.818298,245.998840 231.421509,246.989853 
	C229.104828,252.775864 221.792892,256.270569 216.307526,253.840805 
	C214.493164,253.037125 213.401901,251.156921 213.174683,249.011841 
	C212.897629,246.396515 212.617065,243.781586 212.274902,240.574844 
	C210.195663,242.650177 209.880173,245.121796 208.708023,247.087250 
	C206.326004,251.081406 203.235916,254.287262 198.221237,254.401260 
	C193.108688,254.517456 190.007629,251.649124 187.979324,247.128616 
	C185.869873,242.427246 187.765366,238.795578 190.610504,235.306152 
	C192.583328,232.886597 194.815826,230.695999 196.814636,228.283966 
	C199.216202,225.385925 203.101761,225.991104 206.551605,227.037598 
	C209.251373,227.856583 210.437637,229.312790 210.228745,232.510925 
	C210.130386,234.016647 209.429108,236.485382 211.636246,238.190399 
z"/>
<path fill="#333333" opacity="1.000000" stroke="none" 
	d="
M351.418976,235.281616 
	C353.633087,226.789093 353.633057,226.788116 362.446991,226.478317 
	C363.777344,226.431549 365.110535,226.331818 366.438202,226.377930 
	C367.873352,226.427765 369.826294,226.150635 369.833466,228.254196 
	C369.839355,229.984833 368.271088,230.658051 366.645599,230.777328 
	C364.039368,230.968552 361.532623,230.916443 359.203369,232.802246 
	C357.753632,233.975998 357.353302,235.127609 357.675964,236.520630 
	C358.053345,238.149887 359.566864,237.302460 360.616058,237.304398 
	C363.327148,237.309387 367.709656,235.839401 368.141785,238.598572 
	C368.604340,241.552002 363.824646,241.230865 361.402039,241.944153 
	C357.912292,242.971649 354.277405,243.138840 353.381592,247.953339 
	C357.104584,248.593323 360.925751,247.474136 364.753571,247.484604 
	C366.295593,247.488815 368.610809,246.779343 368.978638,248.799988 
	C369.370697,250.953583 367.038361,252.372574 365.413086,252.747452 
	C360.893646,253.789856 356.244202,254.313538 351.624298,254.856171 
	C349.400238,255.117401 348.463867,253.710068 349.233307,251.716263 
	C351.235352,246.528717 350.473663,241.021179 351.418976,235.281616 
z"/>
<path fill="#2E2E2E" opacity="1.000000" stroke="none" 
	d="
M184.914703,243.835159 
	C182.784180,250.632507 173.267365,256.348511 166.397278,254.620987 
	C163.959930,254.008102 162.988556,250.862244 163.141357,248.436462 
	C163.533829,242.206802 164.295197,235.991776 165.165649,229.807007 
	C165.377670,228.300552 166.369904,226.740234 168.265030,226.377075 
	C176.397415,224.818741 184.425797,230.674011 185.812653,239.613770 
	C185.237778,240.631699 185.013870,241.367767 184.897278,242.422028 
	C184.836472,242.680862 184.580414,243.087463 184.486649,243.281357 
	C184.392883,243.475250 184.785721,243.660461 184.914703,243.835159 
z"/>
<path fill="#333333" opacity="1.000000" stroke="none" 
	d="
M252.236710,231.687195 
	C251.300552,232.185547 250.602295,232.442535 249.528625,232.704971 
	C245.711929,232.274307 244.074326,232.951248 242.977554,235.542999 
	C242.659027,238.838028 245.605240,238.134781 246.961151,239.190292 
	C253.856461,244.558090 254.809250,246.574493 247.330627,252.775543 
	C242.101379,257.111450 238.302032,256.985901 235.170853,253.300415 
	C234.379379,252.368835 233.598679,251.463959 234.080536,250.236618 
	C234.610840,248.885849 235.772034,249.865631 236.650833,249.748367 
	C237.794495,249.595779 238.927490,249.323410 240.045975,249.029755 
	C242.824142,248.300339 246.367981,247.347885 246.334946,244.331299 
	C246.305954,241.683136 242.569168,241.766174 240.275986,241.346680 
	C237.471497,240.833649 234.564377,239.844681 234.304016,237.066925 
	C234.052460,234.382843 236.179077,232.170746 238.530685,230.289017 
	C243.004379,226.709274 247.380981,224.650589 252.859039,228.667587 
	C253.554840,229.966904 252.935089,230.689194 252.236710,231.687195 
z"/>
<path fill="#353535" opacity="1.000000" stroke="none" 
	d="
M332.348145,232.352005 
	C333.810944,230.957275 334.949921,229.742508 336.232941,228.705978 
	C340.367798,225.365494 345.284241,226.557953 348.273071,231.916779 
	C343.171509,231.186066 338.947662,232.465759 335.935181,236.560226 
	C335.154907,237.620728 334.522369,238.797745 333.892151,239.959274 
	C332.277252,242.935532 332.900543,246.498566 334.534210,248.480698 
	C336.177612,250.474701 339.019104,247.781082 341.192749,246.838333 
	C342.474396,246.282455 343.375427,244.904709 344.587982,244.110931 
	C345.216827,243.699219 346.224609,243.534805 346.889252,244.233582 
	C347.519501,244.896225 347.419556,245.731247 347.092102,246.560974 
	C344.598511,252.879654 339.194397,255.674149 332.501160,254.110550 
	C331.061249,253.774170 330.271759,252.696304 329.578064,251.565826 
	C326.524200,246.588974 327.823975,236.933640 332.348145,232.352005 
z"/>
<path fill="#333333" opacity="1.000000" stroke="none" 
	d="
M297.999695,254.035034 
	C299.920715,244.813049 298.038544,235.764145 296.171936,225.961426 
	C304.913971,229.150452 302.243347,236.997757 304.430939,242.633682 
	C306.986969,239.258713 309.495544,235.925430 312.030090,232.612000 
	C312.825745,231.571777 313.837250,230.326340 315.077911,231.761856 
	C315.887848,232.699036 317.553223,233.743607 316.144714,235.501602 
	C311.975555,240.705261 309.397034,246.872192 305.876678,252.460587 
	C304.150696,255.200500 301.345917,255.118881 298.286499,253.779343 
	C297.943420,253.987854 297.987793,254.012589 297.999695,254.035034 
z"/>
<path fill="#353535" opacity="1.000000" stroke="none" 
	d="
M322.079651,227.617996 
	C327.217377,226.508636 328.191437,227.338318 326.994354,231.804840 
	C325.399200,237.756454 324.689880,243.789124 324.659760,249.931244 
	C324.645996,252.739044 324.393219,256.554565 321.315765,256.453369 
	C319.339142,256.388336 318.808441,252.306076 318.907196,249.523651 
	C319.084015,244.542191 320.080994,239.701828 321.034912,234.840332 
	C321.478699,232.578766 321.675171,230.268707 322.079651,227.617996 
z"/>
<path fill="#353535" opacity="1.000000" stroke="none" 
	d="
M243.245697,235.731079 
	C242.376221,234.754349 241.185898,235.476562 240.299850,234.893707 
	C243.354370,234.110733 244.776474,228.848557 249.115265,232.358582 
	C247.286789,233.681244 245.420364,234.652054 243.245697,235.731079 
z"/>
<path fill="#353535" opacity="1.000000" stroke="none" 
	d="
M184.225800,243.985672 
	C184.152847,242.621765 183.404083,241.015244 185.387848,240.064758 
	C185.685104,241.177750 185.644821,242.366852 185.324127,243.782898 
	C185.043686,244.009857 184.556702,244.050797 184.225800,243.985672 
z"/>
<path fill="#353535" opacity="1.000000" stroke="none" 
	d="
M252.283066,231.897491 
	C252.250092,231.142227 252.501389,230.355881 252.878143,229.280853 
	C254.362595,230.178604 252.934097,230.941940 252.283066,231.897491 
z"/>
<path fill="#F5F5F5" opacity="1.000000" stroke="none" 
	d="
M284.379974,238.090302 
	C283.166718,236.122421 284.161407,234.292679 284.526215,232.434967 
	C284.810913,230.985245 285.806396,229.978806 287.327209,230.328110 
	C288.544952,230.607819 290.031097,231.119049 290.705750,232.036621 
	C291.731964,233.432312 290.223419,234.436737 289.232819,235.188492 
	C287.808899,236.269104 286.220764,237.133286 284.379974,238.090302 
z"/>
<path fill="#F5F5F5" opacity="1.000000" stroke="none" 
	d="
M284.003204,238.006348 
	C283.815216,238.162048 283.647369,238.344452 283.479553,238.526855 
	C283.557037,238.287079 283.634491,238.047302 283.884583,237.949127 
	C284.057251,238.090744 284.023346,238.033035 284.003204,238.006348 
z"/>
<path fill="#F5F5F5" opacity="1.000000" stroke="none" 
	d="
M203.004578,244.143127 
	C202.274231,245.071213 201.763290,245.736053 201.164093,246.308533 
	C199.390396,248.003067 197.662766,250.462189 194.840012,248.786987 
	C192.060211,247.137283 192.560669,244.427673 193.260544,241.654648 
	C194.320496,237.454910 197.297516,234.917801 200.487396,232.519928 
	C201.934464,231.432129 203.763504,231.544342 205.273392,232.221344 
	C206.981461,232.987213 206.406433,234.775467 206.342590,236.229431 
	C206.214615,239.144226 206.975494,242.440048 203.004578,244.143127 
z"/>
<path fill="#F5F5F5" opacity="1.000000" stroke="none" 
	d="
M176.542480,232.419754 
	C179.433517,233.018234 181.167191,234.168884 181.209702,237.057831 
	C181.259079,240.414185 180.130295,243.316132 177.248108,244.940308 
	C174.869720,246.280548 172.216949,247.375626 169.162643,247.385956 
	C168.516083,243.012756 169.682968,238.852570 170.485703,234.716049 
	C171.093704,231.582993 173.895905,232.294312 176.542480,232.419754 
z"/>
<path fill="#353535" opacity="1.000000" stroke="none" 
	d="
M184.028763,244.045624 
	C183.921524,244.110855 183.760483,244.945557 183.760590,244.002319 
	C183.894897,243.920547 183.987854,244.000122 184.028763,244.045624 
z"/>
</svg>