<svg version="1.1" id="Layer_1" xmlns="http://www.w3.org/2000/svg" xmlns:xlink="http://www.w3.org/1999/xlink" x="0px" y="0px"
	 width="100%" viewBox="0 0 360 108" enable-background="new 0 0 360 108" xml:space="preserve">
<path fill="#010101" opacity="1.000000" stroke="none" 
	d="
M237.000000,109.000000 
	C159.333359,109.000000 82.166656,108.970947 5.000211,109.096169 
	C1.575903,109.101723 0.883863,108.426521 0.900722,104.999565 
	C1.065518,71.500381 1.049129,37.999878 0.915525,4.500418 
	C0.903625,1.516673 1.517789,0.916189 4.499983,0.918614 
	C122.166542,1.014305 239.833221,1.014293 357.499786,0.918668 
	C360.481293,0.916245 361.096344,1.515757 361.084534,4.500166 
	C360.951080,38.166294 360.951141,71.833344 361.084442,105.499474 
	C361.096252,108.482910 360.483887,109.093239 357.499908,109.083900 
	C317.500244,108.958580 277.500061,109.000000 237.000000,109.000000 
z"/>
<path fill="#0E82B9" opacity="1.000000" stroke="none" 
	d="
M191.119995,71.452156 
	C183.962723,72.205299 183.963333,72.205299 183.956604,65.620377 
	C183.952881,61.962631 183.937134,58.304871 183.943802,54.647148 
	C183.954712,48.663296 186.117844,47.327042 191.797226,49.781208 
	C194.768005,51.064934 203.326126,48.066879 204.734573,45.249020 
	C209.191437,36.332249 218.849640,31.788237 227.668579,35.544094 
	C237.642532,39.791847 241.349335,46.612797 239.788101,57.861050 
	C238.569504,66.640610 229.774384,73.252724 220.758270,72.885109 
	C211.338303,72.501022 204.172180,65.629433 203.032349,55.884602 
	C202.974854,55.393047 202.940430,54.898796 202.837799,53.778904 
	C200.253784,58.167519 194.464828,53.207840 192.131927,58.556755 
	C190.956787,62.912441 191.836304,67.045677 191.119995,71.452156 
z"/>
<path fill="#0A83BC" opacity="1.000000" stroke="none" 
	d="
M74.799477,35.782009 
	C84.655075,38.042309 89.807831,45.737747 88.941025,56.493275 
	C88.310867,64.312386 80.659622,71.531197 72.527786,71.978874 
	C59.963982,72.670532 59.953804,72.670525 59.956215,60.264347 
	C59.957703,52.609531 59.995930,44.954723 60.087921,36.862907 
	C64.789146,34.417465 69.640427,35.974728 74.799477,35.782009 
z"/>
<path fill="#1081B7" opacity="1.000000" stroke="none" 
	d="
M274.273407,40.256165 
	C280.839966,34.536816 288.031311,33.117668 295.924652,35.614464 
	C297.883392,36.234047 301.174927,36.403275 299.585052,40.025791 
	C298.457489,42.594933 297.947052,45.489655 293.368134,43.808105 
	C285.275665,40.836266 277.764771,46.124092 277.927460,53.924892 
	C278.082397,61.353409 285.547913,66.363960 293.557983,63.464275 
	C298.359131,61.726231 298.572113,65.003204 299.687317,67.363922 
	C301.218323,70.604881 298.050903,70.918137 296.287781,71.546265 
	C283.697998,76.031448 270.938538,68.816566 268.628143,55.906380 
	C267.544189,49.849354 270.053528,44.884380 274.273407,40.256165 
z"/>
<path fill="#1081B7" opacity="1.000000" stroke="none" 
	d="
M315.103821,48.908665 
	C318.189240,50.802002 320.870117,48.765697 323.594055,48.930950 
	C326.150055,49.086014 327.597931,49.463219 327.504517,52.473648 
	C327.334747,57.945522 327.390259,63.427452 327.482727,68.902977 
	C327.523254,71.301140 326.487854,72.165031 324.206512,71.991592 
	C320.210846,71.687805 316.347321,71.758049 312.286926,72.637260 
	C307.992249,73.567223 304.271545,70.947655 302.093231,66.987099 
	C299.465881,62.210083 299.715881,57.328636 302.893402,52.959900 
	C305.761322,49.016861 309.818085,47.471321 315.103821,48.908665 
z"/>
<path fill="#1181B5" opacity="1.000000" stroke="none" 
	d="
M154.086884,60.912193 
	C154.412949,54.661793 157.619736,50.950428 162.976807,49.140450 
	C168.612839,47.236217 173.876633,48.222870 178.237289,52.351452 
	C183.635422,57.462292 182.910675,65.843925 176.861526,70.124252 
	C168.521912,76.025314 154.765976,72.120300 154.086884,60.912193 
z"/>
<path fill="#1B7EAD" opacity="1.000000" stroke="none" 
	d="
M95.306984,51.664856 
	C104.387665,45.245510 113.600571,48.446709 117.510544,58.849072 
	C120.478935,50.409279 125.903938,47.230747 134.614120,48.978580 
	C136.456696,49.348320 138.213898,49.116276 140.790527,49.031990 
	C143.164062,50.489506 142.538177,52.164951 142.057770,54.141911 
	C141.773102,54.656528 141.613190,54.834431 141.108749,55.112686 
	C137.628632,54.273056 134.490555,55.452766 131.300888,55.240837 
	C128.111420,55.028919 126.191437,57.696918 126.461288,60.953445 
	C126.727303,64.163651 128.710617,66.049004 132.145645,65.972252 
	C133.801819,65.935249 135.584488,64.747406 136.737518,67.284531 
	C137.907654,69.859268 138.293991,71.280975 134.794022,72.229660 
	C127.097313,74.315872 121.064880,71.194633 117.543221,62.639999 
	C116.878349,64.051292 116.254631,65.375214 115.017731,66.798615 
	C112.382904,65.800148 112.840912,63.844872 112.726601,62.078716 
	C112.323166,55.845505 108.144707,52.279167 101.806213,52.799774 
	C99.704597,52.972389 97.569778,53.817772 95.306984,51.664856 
z"/>
<path fill="#1082B7" opacity="1.000000" stroke="none" 
	d="
M337.564331,33.665070 
	C339.259369,34.485958 339.003326,35.748055 339.005524,36.860535 
	C339.026337,47.306969 338.902771,57.755352 339.079102,68.198814 
	C339.133484,71.420677 337.824066,72.013580 334.978851,72.050056 
	C331.970520,72.088631 330.935486,71.136177 330.985718,68.076477 
	C331.143585,58.461708 331.317505,48.831356 330.925507,39.229889 
	C330.720459,34.207214 332.480927,32.616146 337.564331,33.665070 
z"/>
<path fill="#07090A" opacity="1.000000" stroke="none" 
	d="
M32.336525,41.408306 
	C32.067490,40.987873 32.053146,40.799992 32.025406,40.329781 
	C30.796947,38.626617 29.988899,37.065128 30.403255,34.745663 
	C30.715591,33.636944 31.073769,32.998173 32.118713,32.507565 
	C34.870499,32.533463 34.362560,36.256508 37.325302,36.180138 
	C40.056187,36.168606 40.268986,39.050854 42.480614,39.690636 
	C43.364243,39.875633 43.951305,39.913731 44.817486,39.679302 
	C45.945484,39.368538 46.449856,38.784470 46.993607,37.775532 
	C49.403740,35.344002 46.487572,34.808979 45.763737,33.175438 
	C45.459969,31.570360 44.773529,30.344761 45.634567,28.726702 
	C49.348312,27.632601 53.261578,28.564480 56.014420,25.271450 
	C56.807377,24.322886 58.186287,24.930986 59.433075,26.052177 
	C60.655869,27.673248 60.196625,29.085276 60.027424,30.898911 
	C59.769146,32.500706 59.137711,33.371899 57.731152,33.921005 
	C55.328377,35.373257 56.677887,38.082001 55.060493,39.989426 
	C53.961342,41.468807 53.107975,42.716526 52.026482,44.187767 
	C51.868896,44.692455 51.849304,44.906910 51.919983,45.436089 
	C52.072773,45.963764 52.135296,46.176708 52.351585,46.689781 
	C54.421497,49.148994 53.987980,51.779800 53.940598,54.694160 
	C53.519760,57.091656 52.132706,58.398270 50.372864,59.865601 
	C49.728321,60.382679 49.299091,60.556877 48.462715,60.601887 
	C47.622238,60.542896 47.143539,60.495525 46.373573,60.237232 
	C45.543175,59.868919 45.004051,59.711475 44.220924,59.414032 
	C43.961681,58.137051 43.587322,56.964138 44.068958,55.871189 
	C45.966702,51.564777 44.507137,48.785564 39.985718,47.004971 
	C37.380894,45.025517 34.337440,44.236401 32.336525,41.408306 
z"/>
<path fill="#1381B4" opacity="1.000000" stroke="none" 
	d="
M249.853195,51.083523 
	C253.801086,48.433094 257.604095,47.435036 261.835938,49.390316 
	C264.619720,50.676537 266.559723,52.766624 266.763519,55.738083 
	C267.080170,60.354916 266.929810,65.007141 266.893555,69.643707 
	C266.867279,73.007195 264.217987,71.774002 262.496307,71.942039 
	C260.629578,72.124229 258.778503,72.105255 258.863312,69.309090 
	C258.953644,66.330605 258.948730,63.340923 258.799011,60.365509 
	C258.600830,56.426315 257.134064,53.878014 252.176865,55.545799 
	C250.602554,54.476547 248.761551,53.593571 249.853195,51.083523 
z"/>
<path fill="#0684BF" opacity="1.000000" stroke="none" 
	d="
M350.033478,71.473953 
	C349.275757,71.842796 348.886292,71.879387 348.204712,71.881607 
	C347.769531,71.761040 347.626404,71.674858 347.272949,71.724907 
	C346.868439,71.882935 346.674286,71.904724 346.189697,71.887054 
	C343.848602,71.463646 343.452667,70.127846 343.466644,68.216446 
	C343.540802,58.081188 343.570435,47.944305 343.456818,37.809799 
	C343.425323,35.001438 344.447357,33.949493 347.219940,33.993622 
	C349.900513,34.036285 350.556519,35.331699 350.528290,37.747566 
	C350.398132,48.878166 350.625641,60.010754 350.033478,71.473953 
z"/>
<path fill="#1B7EAD" opacity="1.000000" stroke="none" 
	d="
M140.961792,48.967575 
	C140.922897,47.388371 141.154526,45.872974 140.969498,44.410290 
	C140.539978,41.014511 142.102020,40.206532 145.234985,40.177708 
	C148.453903,40.148087 149.277359,41.512463 149.030197,44.367950 
	C148.812225,46.886189 148.529572,49.401974 152.537170,49.187740 
	C154.387146,49.088852 153.864746,51.123726 153.953491,52.345184 
	C154.052917,53.714035 153.983536,55.188728 152.063797,55.121113 
	C149.660049,55.036453 148.608932,56.176945 149.059616,58.423050 
	C149.520294,60.718864 147.302444,64.043541 151.319046,65.060860 
	C154.409607,65.843628 154.277039,68.661858 154.213943,70.605438 
	C154.146423,72.685661 151.538208,72.678154 149.812225,72.849731 
	C144.688431,73.359108 141.277756,70.301857 141.042725,65.052635 
	C140.909302,62.072563 140.952789,59.084568 140.840424,55.656593 
	C140.764236,55.213039 140.943954,55.026051 141.033401,54.932159 
	C144.361496,53.064850 144.801315,55.307194 144.950455,57.627094 
	C145.131500,60.442883 144.732590,63.313213 145.812851,65.738304 
	C144.719971,62.525444 144.461441,58.828617 145.331680,55.392776 
	C146.259796,51.728531 145.406708,50.029129 141.459473,49.468552 
	C141.205475,49.230896 141.043030,49.055336 140.961792,48.967575 
z"/>
<path fill="#0385C2" opacity="1.000000" stroke="none" 
	d="
M250.114960,50.708183 
	C250.934326,52.128223 251.982910,53.323048 251.827759,55.342964 
	C251.823410,55.681496 251.578415,55.969513 251.397522,56.024460 
	C248.057831,59.136219 250.149246,63.058228 249.468689,66.518929 
	C249.132462,68.228630 250.790756,70.775940 247.717987,71.443787 
	C245.112793,72.010002 243.678894,70.519104 242.672043,67.825943 
	C242.460815,63.623581 242.507111,59.865757 242.502563,56.108124 
	C242.494446,49.383018 242.500946,49.383011 249.654419,50.007893 
	C249.905090,50.419064 250.091034,50.585670 250.114960,50.708183 
z"/>
<path fill="#417189" opacity="1.000000" stroke="none" 
	d="
M275.000000,87.996964 
	C266.865112,87.996864 259.230255,87.996864 251.595367,87.996864 
	C251.595749,87.781067 251.596130,87.565269 251.596497,87.349472 
	C284.587982,87.349472 317.579468,87.349472 350.570923,87.349472 
	C350.572693,87.565338 350.574463,87.781204 350.576202,87.997070 
	C325.550812,87.997070 300.525391,87.997070 275.000000,87.996964 
z"/>
<path fill="#327A99" opacity="1.000000" stroke="none" 
	d="
M350.116486,71.743256 
	C349.746796,61.033989 349.852661,50.261860 349.887939,39.489498 
	C349.894409,37.501648 349.896057,35.193630 347.048035,35.141216 
	C344.239532,35.089527 344.038025,37.307762 344.027008,39.347652 
	C343.976959,48.630936 343.992371,57.914585 343.992371,67.198105 
	C343.992371,68.719574 344.208344,70.182068 345.637299,71.582962 
	C343.771240,72.315514 342.887756,71.519539 342.900970,69.288437 
	C342.965790,58.337460 342.998779,47.385483 342.908905,36.434959 
	C342.885071,33.531555 344.481812,33.138866 346.716248,33.339870 
	C348.541870,33.504105 351.064056,32.674103 351.002075,35.917088 
	C350.774353,47.837261 351.603088,59.770287 350.116486,71.743256 
z"/>
<path fill="#624F8B" opacity="1.000000" stroke="none" 
	d="
M73.887939,22.779236 
	C75.209236,23.268272 76.259445,23.619186 77.644684,23.987835 
	C78.110008,24.141882 78.240311,24.278196 78.646095,24.478739 
	C79.395996,24.611401 79.870430,24.679831 80.700729,24.681257 
	C81.056602,24.614252 81.518509,24.590528 81.743446,24.644211 
	C83.417175,27.053574 81.119835,26.665215 80.209618,26.834044 
	C74.117958,27.963940 68.000595,28.955303 61.458565,30.027697 
	C60.394703,29.839733 60.111042,29.360079 60.020653,28.430210 
	C59.990688,27.940222 59.979469,27.744352 59.933327,27.253384 
	C59.864433,26.760067 59.830460,26.561852 59.727425,26.066238 
	C59.350838,24.775391 58.718678,23.810003 59.633118,22.498653 
	C60.283443,22.096926 60.707642,21.962864 61.467537,21.774799 
	C64.018509,21.841570 65.677483,24.028704 68.429031,23.447695 
	C69.796509,23.449230 70.831612,23.363731 72.139359,23.011166 
	C72.819427,22.796976 73.213768,22.700771 73.887939,22.779236 
z"/>
<path fill="#6D559C" opacity="1.000000" stroke="none" 
	d="
M43.184143,74.238449 
	C40.029598,72.578094 37.912468,70.554771 38.975201,67.060318 
	C40.111446,63.324146 35.687935,64.053886 34.993668,61.483028 
	C34.662464,60.579254 34.800472,60.122776 35.721180,59.863861 
	C38.113674,61.299644 40.039032,62.774460 42.118141,63.985260 
	C47.107407,66.890831 47.495365,68.001801 44.860237,73.665215 
	C44.396763,74.378479 43.977337,74.524597 43.184143,74.238449 
z"/>
<path fill="#7D69B0" opacity="1.000000" stroke="none" 
	d="
M44.680233,86.923874 
	C46.310677,87.099129 46.785778,86.127625 47.577248,85.062714 
	C48.093235,84.807304 48.329723,84.695091 48.880131,84.818726 
	C48.143772,87.370209 46.585918,89.367599 48.571320,92.279846 
	C49.718639,93.962761 48.473122,96.335899 46.518742,98.063622 
	C45.799229,97.672699 46.292816,98.386215 45.900681,97.847076 
	C45.717983,97.595886 45.545116,97.337921 45.374413,97.078773 
	C45.506550,97.290436 45.656532,97.490730 45.967949,97.975662 
	C41.708496,99.007973 44.223469,103.514450 42.069820,105.953835 
	C40.053970,104.581467 40.572857,102.556480 40.361904,100.413040 
	C40.550152,99.139534 40.885231,98.260582 40.568932,96.983406 
	C40.387081,96.003548 40.296528,95.355827 40.515640,94.397682 
	C40.692604,93.308044 41.077572,92.612038 41.914452,91.304749 
	C42.598400,90.593346 42.707485,90.449974 42.897972,90.047935 
	C43.035431,89.233597 43.046963,88.672913 43.285202,87.854736 
	C43.668232,87.277618 43.996437,87.063927 44.680233,86.923874 
z"/>
<path fill="#6F5AA0" opacity="1.000000" stroke="none" 
	d="
M41.376278,86.077240 
	C39.880390,81.515594 36.197205,78.566948 33.715527,74.839882 
	C31.887354,72.094276 31.540239,69.265358 33.285252,65.948151 
	C32.999851,72.986725 37.313660,76.471489 42.530479,79.390602 
	C43.830025,80.117775 44.758095,81.388641 44.843513,83.392166 
	C44.165195,84.961372 43.425804,86.161438 41.376278,86.077240 
z"/>
<path fill="#726198" opacity="1.000000" stroke="none" 
	d="
M49.498123,84.959808 
	C48.971283,85.030563 48.748512,85.006561 48.191246,84.951050 
	C48.876354,80.358009 47.609219,76.796654 43.106853,74.294998 
	C43.300476,74.031013 43.711021,74.027443 44.429100,74.013931 
	C48.915890,75.487160 52.277889,72.600708 51.636066,67.886948 
	C51.444839,66.482475 50.538570,65.175369 49.874855,63.405853 
	C49.963017,62.871792 50.136242,62.755516 50.586292,62.785210 
	C54.376274,65.932434 54.524200,70.134766 52.178303,73.100044 
	C49.657230,76.286751 49.475990,79.149048 50.136749,82.604233 
	C50.287048,83.390144 50.586102,84.211487 49.498123,84.959808 
z"/>
<path fill="#6E599E" opacity="1.000000" stroke="none" 
	d="
M62.269852,22.861416 
	C61.542496,22.986500 61.134724,22.971649 60.420921,22.958138 
	C58.946384,23.992594 60.290031,25.092131 59.912468,26.471434 
	C59.634075,26.956894 59.473766,27.120201 58.971466,27.312876 
	C57.706451,26.819870 56.911213,25.552750 55.668598,26.745241 
	C53.172958,29.140221 50.046848,29.093424 46.500343,29.108879 
	C45.650856,28.699966 45.485176,28.159899 45.842789,27.175648 
	C49.181828,26.922781 52.436970,27.740767 54.881737,24.362339 
	C55.737919,23.315271 55.388569,22.359869 55.806641,21.284542 
	C59.898499,21.427685 62.626446,20.248053 63.762306,16.102268 
	C64.354927,13.939245 65.280922,15.486663 66.109314,16.640537 
	C66.530602,17.591839 66.735580,18.229067 66.624039,19.261423 
	C66.531487,20.052969 66.479668,20.506853 66.349251,21.298597 
	C65.440392,23.346024 63.919270,22.709366 62.269852,22.861416 
z"/>
<path fill="#6D599A" opacity="1.000000" stroke="none" 
	d="
M8.687820,22.425148 
	C11.765069,21.223969 14.527324,20.064472 17.694572,18.934793 
	C17.873665,20.844992 15.057515,20.950663 15.218713,23.188759 
	C17.570265,24.283184 18.785986,21.245712 20.987989,21.593555 
	C21.327486,23.643776 19.224289,23.603294 18.243723,24.861320 
	C17.604614,25.550106 17.041725,25.643095 16.201033,25.812050 
	C12.851058,26.921093 10.535995,24.550953 7.409764,23.961456 
	C6.527437,22.512421 7.600380,22.631348 8.687820,22.425148 
z"/>
<path fill="#517686" opacity="1.000000" stroke="none" 
	d="
M148.957397,80.977951 
	C150.483871,81.059517 151.724457,80.936623 152.276337,82.387222 
	C151.817398,83.354797 150.939484,82.840744 150.243271,82.914719 
	C149.011124,83.045654 147.303513,82.446121 147.085220,84.359116 
	C146.906296,85.927254 148.552704,85.839401 149.516541,86.341179 
	C151.561356,87.405693 154.896011,87.696854 153.093979,91.348747 
	C151.963211,93.640327 148.846573,93.660904 145.660400,91.640190 
	C146.180359,90.841988 146.834030,91.278717 147.388779,91.527176 
	C149.163269,92.321930 151.111252,92.123146 151.588654,90.349731 
	C152.092712,88.477348 149.945938,88.420860 148.569214,87.959351 
	C146.864563,87.387917 144.977036,86.828430 145.027878,84.442116 
	C145.076752,82.148254 146.702652,81.434784 148.957397,80.977951 
z"/>
<path fill="#7157AA" opacity="1.000000" stroke="none" 
	d="
M39.912048,45.685139 
	C49.344604,50.253418 48.968338,48.429054 44.300613,59.068871 
	C43.094299,58.743149 42.211670,58.212273 41.230667,57.384453 
	C41.237480,56.906975 41.342674,56.726440 41.563805,56.259117 
	C41.685314,55.299301 41.305557,54.857533 40.555786,54.274300 
	C39.965847,53.244297 39.339390,52.702419 38.352722,52.082146 
	C38.115498,51.883846 37.943951,51.896782 37.874702,51.947815 
	C37.609192,51.606266 37.513229,51.190536 37.547585,50.428223 
	C38.012661,49.333374 38.447727,48.561951 38.898170,47.455444 
	C38.739044,46.467079 38.926937,45.943943 39.912048,45.685139 
z"/>
<path fill="#6E6090" opacity="1.000000" stroke="none" 
	d="
M35.748314,27.459915 
	C37.502636,26.689291 39.966339,28.042597 39.974628,24.934059 
	C39.979233,23.207279 40.134911,22.153252 37.566849,21.256510 
	C31.755104,19.227100 36.451553,15.999144 37.498322,13.190269 
	C39.381096,13.595915 36.982155,16.700506 39.883858,16.167782 
	C40.145477,15.786568 40.637634,15.825566 40.864468,15.934238 
	C41.211288,16.164190 41.331276,16.285473 41.625664,16.606855 
	C41.932076,16.936718 42.064095,17.066483 42.422661,17.376902 
	C42.966820,17.844759 43.180882,18.198408 43.429024,18.936531 
	C43.223030,21.500677 43.752613,23.751472 43.352074,26.375965 
	C43.197830,28.400442 41.779163,28.980631 40.377144,30.082335 
	C38.812912,30.474825 37.645828,30.709547 36.163658,29.844955 
	C35.484608,29.024162 35.376602,28.449984 35.748314,27.459915 
z"/>
<path fill="#6C5A8E" opacity="1.000000" stroke="none" 
	d="
M33.602612,32.627434 
	C32.610119,33.239231 32.189857,33.551361 31.604317,34.087543 
	C31.169228,34.440182 30.899414,34.568768 30.373974,34.329044 
	C28.077085,31.134233 26.778883,27.402990 21.970322,27.961174 
	C22.944633,26.033899 24.775740,27.572538 25.737495,26.105061 
	C26.278921,25.273344 26.381279,24.576099 26.637474,23.563919 
	C27.266592,22.729578 27.660233,22.137329 28.586624,21.636700 
	C30.336262,21.484810 30.900166,22.570873 31.846985,23.726273 
	C32.462784,24.456938 32.805534,24.970276 33.011047,26.103485 
	C31.180014,29.085369 35.720039,30.000252 33.602612,32.627434 
z"/>
<path fill="#4D788A" opacity="1.000000" stroke="none" 
	d="
M162.097076,93.010056 
	C158.493713,92.185875 157.311020,90.032806 158.322083,87.026672 
	C159.076141,84.784683 160.953888,83.587601 163.445480,84.031502 
	C165.911423,84.470833 167.144714,86.067589 167.150650,88.570847 
	C167.158020,91.673729 165.569794,93.134392 162.097076,93.010056 
z"/>
<path fill="#765BB1" opacity="1.000000" stroke="none" 
	d="
M44.057465,88.214310 
	C44.320759,88.741974 44.585670,88.935768 44.918728,89.305038 
	C45.400959,90.271599 45.539104,91.147995 45.278904,92.474472 
	C44.250965,93.171585 43.398735,93.455460 42.236534,93.872002 
	C37.967812,95.534958 37.579666,95.270241 37.089180,90.308701 
	C36.910690,89.147133 36.697113,88.358406 36.305725,86.913048 
	C38.140358,87.691811 39.613335,88.396217 41.143692,88.938736 
	C42.157864,89.298256 43.567921,89.953735 42.633179,87.632065 
	C41.972748,87.288002 41.858696,87.060127 42.096146,86.683723 
	C42.698517,86.575020 42.949390,86.614830 43.494740,86.895874 
	C43.890156,87.369850 43.991100,87.602592 44.057465,88.214310 
z"/>
<path fill="#4B798D" opacity="1.000000" stroke="none" 
	d="
M85.496979,85.935654 
	C86.572067,87.410278 87.696953,88.883003 84.855270,88.990852 
	C83.387032,89.046577 81.914948,89.000648 80.321655,89.000648 
	C80.123787,92.400192 82.958237,91.459824 84.461258,92.450180 
	C82.324883,93.425171 80.398712,93.447533 78.950996,91.540871 
	C77.370308,89.459076 77.477516,87.294975 79.517883,85.079399 
	C81.715233,84.615997 83.348343,85.781143 85.496979,85.935654 
z"/>
<path fill="#745EA1" opacity="1.000000" stroke="none" 
	d="
M32.082806,23.562325 
	C31.262159,23.411320 30.404282,22.879042 29.293591,22.165974 
	C28.865486,22.146027 28.690197,22.306871 28.195513,22.626888 
	C27.394184,22.834549 26.935452,22.752815 26.273737,22.264830 
	C25.694862,19.867826 22.173460,20.024874 22.325184,17.205315 
	C21.802376,17.248381 21.625664,17.378580 21.378197,17.187225 
	C22.795385,14.138937 24.169832,11.849761 25.578127,16.975775 
	C26.121084,18.952072 27.892519,20.150383 29.796438,20.710361 
	C31.193569,21.121288 32.221413,21.502485 32.082806,23.562325 
z"/>
<path fill="#1381B4" opacity="1.000000" stroke="none" 
	d="
M242.808289,68.219765 
	C244.672989,68.518127 245.495010,71.255379 247.562790,70.172028 
	C249.647491,69.079803 248.749893,66.680931 248.989395,64.805946 
	C249.349060,61.990257 248.002274,58.854321 250.879044,56.261398 
	C249.678299,58.988781 250.057068,62.145874 250.048859,65.247665 
	C250.030289,72.272156 250.039627,72.272179 242.476288,71.426147 
	C242.608200,70.267242 242.439453,69.344475 242.808289,68.219765 
z"/>
<path fill="#4986A2" opacity="1.000000" stroke="none" 
	d="
M70.815041,82.359573 
	C72.836548,85.299866 71.964661,88.476379 71.157593,92.043121 
	C70.461006,88.107582 68.007309,87.523132 64.509064,88.029739 
	C63.870094,88.167282 63.650848,88.291794 63.114418,88.210304 
	C64.220428,84.110886 68.029892,87.471169 70.286453,85.315567 
	C70.489624,84.208199 70.475266,83.379196 70.815041,82.359573 
z"/>
<path fill="#544C64" opacity="1.000000" stroke="none" 
	d="
M36.806892,90.169846 
	C38.432804,91.354874 38.562836,94.163322 41.716961,93.829109 
	C41.942852,94.746201 41.959137,95.487747 41.963535,96.600128 
	C40.674068,98.191719 39.163406,97.346733 37.376366,97.228073 
	C35.284328,94.926926 35.746494,92.676094 36.806892,90.169846 
z"/>
<path fill="#3485AA" opacity="1.000000" stroke="none" 
	d="
M243.033051,67.512756 
	C242.861130,68.825035 242.677887,69.671310 242.361267,70.818237 
	C242.145157,66.004532 242.024826,60.890438 241.988510,55.775745 
	C241.934860,48.217686 241.960297,48.217506 249.821045,49.972931 
	C243.329376,49.922951 243.129715,50.087402 243.046707,56.601917 
	C243.002365,60.083065 243.027786,63.565102 243.033051,67.512756 
z"/>
<path fill="#355663" opacity="1.000000" stroke="none" 
	d="
M98.642715,86.752106 
	C99.311996,93.027527 99.311996,93.027527 91.865555,90.613602 
	C94.058922,89.772781 96.727394,90.344765 97.165833,87.293518 
	C97.572327,86.629044 97.950806,86.492249 98.642715,86.752106 
z"/>
<path fill="#52849B" opacity="1.000000" stroke="none" 
	d="
M197.292114,91.051666 
	C197.844772,91.637207 198.317886,91.842690 198.652710,92.183891 
	C199.466934,93.013626 198.335861,92.840286 198.179169,92.858963 
	C196.447983,93.065285 194.886078,92.250885 195.139618,90.582703 
	C195.504318,88.183327 193.241806,85.870941 194.947205,83.648727 
	C195.890076,82.420082 198.759201,83.861954 198.084808,85.104073 
	C197.333435,86.487968 196.947205,87.760742 197.029465,89.257790 
	C197.056519,89.750359 197.108887,90.241531 197.292114,91.051666 
z"/>
<path fill="#64509A" opacity="1.000000" stroke="none" 
	d="
M50.889805,62.590069 
	C50.684807,62.945808 50.506500,62.960442 50.058990,62.981567 
	C48.590363,62.206390 47.390942,61.424717 46.136909,60.334702 
	C46.515896,59.989693 46.949493,59.953022 47.705444,59.865509 
	C48.297558,59.642849 48.561726,59.462841 49.041397,59.181801 
	C50.905479,58.381996 51.834927,57.029377 52.728230,55.223419 
	C53.604710,54.452896 54.088600,54.747761 54.556606,55.684959 
	C54.547447,58.777370 51.688114,59.893917 50.889805,62.590069 
z"/>
<path fill="#7A65AD" opacity="1.000000" stroke="none" 
	d="
M46.099030,26.628757 
	C46.101471,27.334448 46.103748,27.855560 46.094723,28.767416 
	C46.647354,30.124506 47.259830,31.077276 46.996475,32.622040 
	C46.904331,34.968006 50.278133,36.062561 48.245842,38.758926 
	C47.813198,39.782017 47.884129,40.702774 46.578430,41.101589 
	C43.858772,41.527267 43.822975,39.714279 43.531338,37.656052 
	C43.298405,33.783531 43.267368,30.399000 44.187786,26.633339 
	C44.704849,26.060600 44.980228,25.897760 45.703629,25.906868 
	C46.151649,26.078812 46.098862,26.444180 46.099030,26.628757 
z"/>
<path fill="#476C7B" opacity="1.000000" stroke="none" 
	d="
M213.987045,85.480057 
	C216.907944,82.885818 219.328918,83.598694 221.035233,86.483727 
	C222.647552,89.209824 221.648346,91.262550 218.328857,92.981712 
	C219.087021,89.710770 222.257767,85.763382 215.545197,86.049782 
	C214.682175,86.347649 214.268478,86.243866 213.987045,85.480057 
z"/>
<path fill="#1B7EAD" opacity="1.000000" stroke="none" 
	d="
M113.031403,68.795273 
	C108.483093,73.558197 103.097481,73.666809 97.246803,71.066582 
	C101.566093,67.619316 106.756172,68.250305 111.968323,67.505585 
	C112.515388,67.951027 112.696358,68.172775 113.031403,68.795273 
z"/>
<path fill="#1B7EAD" opacity="1.000000" stroke="none" 
	d="
M96.942581,71.068085 
	C90.457146,67.968613 89.134445,64.989876 90.963959,56.304810 
	C93.395866,60.913155 96.760391,65.002953 97.514267,70.407852 
	C97.261536,70.688400 97.048538,70.941223 96.942581,71.068085 
z"/>
<path fill="#151318" opacity="1.000000" stroke="none" 
	d="
M50.795929,11.933596 
	C51.145611,12.788419 51.168602,13.089395 51.097603,13.617666 
	C50.076134,14.902723 50.706055,15.944469 51.147385,16.942335 
	C52.452293,19.892771 50.985634,20.710951 47.912437,20.575338 
	C44.534142,19.022518 45.742344,16.417379 45.872093,13.719099 
	C46.201885,12.692652 46.540421,12.202430 47.450142,11.637317 
	C48.173050,11.480405 48.476456,11.503040 49.170303,11.761965 
	C49.560749,11.998256 49.496563,12.054482 49.468388,12.022442 
	C49.800560,11.785524 50.160912,11.580652 50.795929,11.933596 
z"/>
<path fill="#4D788A" opacity="1.000000" stroke="none" 
	d="
M233.219009,85.814621 
	C226.749832,84.624084 230.012955,90.793198 227.897781,92.898209 
	C225.746429,85.523315 226.241013,84.544647 232.532013,84.086929 
	C233.347595,84.534485 233.514359,84.986031 233.219009,85.814621 
z"/>
<path fill="#745EA1" opacity="1.000000" stroke="none" 
	d="
M46.870674,12.842012 
	C47.246181,15.189963 47.369053,17.360188 47.734459,19.850670 
	C48.090187,20.365984 48.203384,20.561039 48.103531,21.018856 
	C47.632137,21.377928 47.408611,21.526590 47.057869,21.849422 
	C46.552380,22.334568 46.136341,22.577553 45.296280,22.689230 
	C42.550884,21.764181 44.402733,18.481028 41.739304,17.410141 
	C41.040535,16.971865 40.696362,16.649488 40.270626,15.952906 
	C40.150536,15.619385 40.104313,15.702075 40.124893,15.744322 
	C40.116859,15.486990 40.088242,15.187412 40.027962,14.437534 
	C40.143787,13.885901 40.291279,13.784568 40.613602,13.479561 
	C40.997932,13.360078 41.207436,13.444268 41.732368,13.651762 
	C42.857582,13.957322 43.663963,14.023381 44.735283,13.568336 
	C45.504299,13.086877 45.927193,12.595301 46.870674,12.842012 
z"/>
<path fill="#4B6774" opacity="1.000000" stroke="none" 
	d="
M172.992401,82.195221 
	C173.431931,81.084877 174.272308,80.826988 174.413147,81.640297 
	C175.044052,85.283318 175.356796,88.961937 174.275925,92.536018 
	C173.830566,92.543404 173.385193,92.550797 172.939835,92.558182 
	C172.939835,89.228111 172.939835,85.898041 172.992401,82.195221 
z"/>
<path fill="#607985" opacity="1.000000" stroke="none" 
	d="
M104.989906,88.759521 
	C104.989677,85.946579 104.989677,83.578407 104.989677,81.210243 
	C107.855034,84.939720 106.603577,88.821846 106.926598,92.926308 
	C104.292320,92.179749 105.300972,90.418167 104.989906,88.759521 
z"/>
<path fill="#476C7B" opacity="1.000000" stroke="none" 
	d="
M186.229858,92.625366 
	C180.648224,92.952347 179.890747,91.732849 181.200027,84.236610 
	C182.922043,86.859398 180.653854,91.347862 185.638733,91.516220 
	C186.354126,91.668648 186.484177,92.011658 186.229858,92.625366 
z"/>
<path fill="#78699C" opacity="1.000000" stroke="none" 
	d="
M47.349072,12.948212 
	C46.612244,13.252336 46.101177,13.484932 45.337898,13.840528 
	C44.911549,13.840063 44.737415,13.716596 44.573456,13.273090 
	C45.613777,9.913805 45.690563,7.511507 40.679092,8.387131 
	C43.841785,6.377337 45.978695,6.866860 47.998707,9.488029 
	C48.415390,10.320487 48.513268,10.882891 48.408573,11.888805 
	C48.129967,12.575106 47.880669,12.763334 47.349072,12.948212 
z"/>
<path fill="#4E4265" opacity="1.000000" stroke="none" 
	d="
M38.185429,52.257839 
	C39.246475,51.045311 40.377460,50.206783 41.778809,49.230858 
	C43.517727,51.329262 43.108234,53.725117 42.402428,56.508293 
	C41.986523,56.928051 41.816647,56.964775 41.389534,57.044502 
	C39.655262,55.936779 37.405209,55.285175 38.185429,52.257839 
z"/>
<path fill="#695A86" opacity="1.000000" stroke="none" 
	d="
M54.776093,55.593010 
	C54.201229,55.737484 53.783150,55.467758 53.142494,55.087139 
	C53.131516,52.062412 53.403049,49.135338 50.970001,46.423973 
	C51.038666,45.949791 51.245949,45.826607 51.793350,45.826469 
	C55.289715,48.351635 55.486778,51.651329 54.776093,55.593010 
z"/>
<path fill="#4B798D" opacity="1.000000" stroke="none" 
	d="
M123.296440,86.318085 
	C125.400375,82.663795 128.043152,83.585129 130.857178,85.725288 
	C131.189621,86.550598 131.117691,86.919037 130.361450,87.103729 
	C128.311981,85.543541 126.653137,85.260841 124.987411,87.618973 
	C123.478874,88.437981 123.625145,87.347488 123.296440,86.318085 
z"/>
<path fill="#56798B" opacity="1.000000" stroke="none" 
	d="
M186.441437,92.884598 
	C186.041794,92.510719 186.058350,92.191132 186.059631,91.631462 
	C188.100571,89.473793 186.210632,86.506317 188.345642,84.541412 
	C188.188263,87.383667 191.429535,90.635094 186.441437,92.884598 
z"/>
<path fill="#6D599A" opacity="1.000000" stroke="none" 
	d="
M40.123383,45.550709 
	C40.021111,46.100567 39.695309,46.381802 39.141525,46.891701 
	C35.997559,46.224133 33.116493,45.282745 32.110313,41.528107 
	C34.687840,42.544533 37.293850,43.913307 40.123383,45.550709 
z"/>
<path fill="#607985" opacity="1.000000" stroke="none" 
	d="
M204.991119,89.803253 
	C205.162003,87.708672 204.591675,85.895668 206.123352,83.618950 
	C207.381546,86.373741 206.891647,88.614479 206.924866,90.751442 
	C206.935913,91.461143 207.119431,92.699059 205.972641,92.583961 
	C204.621353,92.448357 205.193054,91.084877 204.991119,89.803253 
z"/>
<path fill="#6E599E" opacity="1.000000" stroke="none" 
	d="
M52.159775,45.586491 
	C51.843811,45.972282 51.554420,45.998009 51.048336,46.049835 
	C50.831379,46.072979 50.500721,45.996643 50.332893,45.971664 
	C49.892632,45.792267 49.634907,45.616310 49.205288,45.277191 
	C49.661308,42.661156 52.810333,42.778503 53.916420,40.317940 
	C54.631950,39.935848 55.053013,40.093807 55.261326,40.880741 
	C54.162743,42.565502 53.174416,43.894482 52.159775,45.586491 
z"/>
<path fill="#3D6171" opacity="1.000000" stroke="none" 
	d="
M233.133270,86.450775 
	C232.982315,85.676979 232.983490,85.245102 232.970642,84.489487 
	C236.527969,86.276184 235.686859,89.344040 234.371414,92.529663 
	C234.009399,90.617340 233.647400,88.705017 233.133270,86.450775 
z"/>
<path fill="#726198" opacity="1.000000" stroke="none" 
	d="
M48.154701,21.485798 
	C47.904068,21.096457 47.917660,20.911295 47.954124,20.448528 
	C49.888561,20.130455 51.728889,20.138016 50.220932,17.297949 
	C49.691257,16.300365 48.724472,15.040536 50.617744,13.871271 
	C52.215206,17.142105 55.409611,21.126789 48.154701,21.485798 
z"/>
<path fill="#436371" opacity="1.000000" stroke="none" 
	d="
M213.760925,85.296120 
	C214.283203,85.360664 214.524765,85.585434 214.975082,85.948227 
	C213.100174,88.241959 214.730423,90.239388 215.865631,92.477341 
	C211.659241,90.610374 211.440750,89.844826 213.760925,85.296120 
z"/>
<path fill="#4986A2" opacity="1.000000" stroke="none" 
	d="
M74.888451,35.740551 
	C70.505028,36.090660 65.780220,36.165184 60.606792,36.332806 
	C62.378860,33.525074 65.470268,35.390934 68.134521,35.077454 
	C70.227852,34.831146 72.406380,35.308868 74.888451,35.740551 
z"/>
<path fill="#0F0E11" opacity="1.000000" stroke="none" 
	d="
M25.765852,22.076530 
	C26.484863,22.017654 26.922174,22.046503 27.685524,22.118195 
	C28.384602,22.555212 28.519558,23.018711 28.247681,23.892731 
	C27.562326,24.768969 27.045736,25.304005 26.248917,25.878971 
	C24.769258,24.801296 21.854725,23.905022 25.765852,22.076530 
z"/>
<path fill="#476C7B" opacity="1.000000" stroke="none" 
	d="
M113.264526,86.248489 
	C110.722145,84.590073 112.710991,83.270378 113.414986,82.562233 
	C114.410347,81.561020 114.782120,83.402710 115.568451,83.727692 
	C117.227989,84.413574 117.347084,85.047539 115.321007,85.892036 
	C114.620140,86.396187 114.143768,86.548477 113.264526,86.248489 
z"/>
<path fill="#517686" opacity="1.000000" stroke="none" 
	d="
M98.877838,86.588692 
	C98.526474,86.955208 98.165138,86.950737 97.532990,86.950592 
	C96.086250,84.931923 93.856865,86.592369 92.138313,85.419647 
	C94.800446,83.341209 97.015343,82.987350 98.877838,86.588692 
z"/>
<path fill="#436371" opacity="1.000000" stroke="none" 
	d="
M85.714928,85.741196 
	C83.813843,87.174362 81.971497,87.104027 80.103607,85.107956 
	C81.940117,83.058304 83.816200,83.772011 85.714928,85.741196 
z"/>
<path fill="#615678" opacity="1.000000" stroke="none" 
	d="
M55.429062,40.981773 
	C54.934288,40.959179 54.717506,40.681839 54.304562,40.227783 
	C55.516293,38.089863 54.429188,35.038681 57.203964,33.784683 
	C56.655388,36.189625 57.210709,38.727573 55.429062,40.981773 
z"/>
<path fill="#615678" opacity="1.000000" stroke="none" 
	d="
M8.662045,22.360889 
	C8.465265,22.768364 7.927718,23.153263 7.212791,23.711433 
	C6.272215,23.634300 5.426930,23.514925 4.766199,23.100971 
	C3.902658,22.559961 2.233022,21.999960 3.527810,20.627043 
	C4.826639,19.249838 5.586380,20.100134 6.094039,21.677256 
	C6.228012,22.093460 7.546637,22.128338 8.662045,22.360889 
z"/>
<path fill="#56798B" opacity="1.000000" stroke="none" 
	d="
M112.948082,86.441353 
	C113.399986,86.017021 113.863091,86.002480 114.673737,85.998245 
	C115.021271,88.080109 115.021271,90.151665 115.021271,92.958366 
	C112.177185,91.104897 113.267166,88.741570 112.948082,86.441353 
z"/>
<path fill="#2D83B0" opacity="1.000000" stroke="none" 
	d="
M191.237915,71.651245 
	C191.356995,67.747688 190.449814,63.625977 191.754059,59.243896 
	C191.832001,63.077938 191.742355,67.300804 191.237915,71.651245 
z"/>
<path fill="#56798B" opacity="1.000000" stroke="none" 
	d="
M129.990173,87.422699 
	C130.258209,86.825745 130.467712,86.631516 130.809021,86.265930 
	C132.354233,88.317535 132.271545,90.512459 130.925964,93.569145 
	C129.581787,91.265320 130.068680,89.492195 129.990173,87.422699 
z"/>
<path fill="#695A86" opacity="1.000000" stroke="none" 
	d="
M35.270977,8.902985 
	C32.684834,7.431735 29.850674,8.125594 27.155432,7.758262 
	C29.651291,6.788717 32.134136,6.648003 34.964096,7.724626 
	C35.333645,8.204479 35.395996,8.416765 35.270977,8.902985 
z"/>
<path fill="#685991" opacity="1.000000" stroke="none" 
	d="
M35.980595,59.643929 
	C35.843212,60.206650 35.568020,60.468414 35.101383,60.941223 
	C33.297798,59.687069 32.032494,58.031879 31.983107,55.372795 
	C32.432766,54.641991 32.906322,54.514156 33.667831,54.944931 
	C33.859085,56.947998 34.818821,58.160847 35.980595,59.643929 
z"/>
<path fill="#61818F" opacity="1.000000" stroke="none" 
	d="
M123.088913,86.462631 
	C123.602684,86.549698 124.055824,87.060883 124.679611,87.762344 
	C124.845039,89.600433 125.493019,91.377518 123.746132,93.375671 
	C122.572716,90.928162 123.165710,88.852295 123.088913,86.462631 
z"/>
<path fill="#080709" opacity="1.000000" stroke="none" 
	d="
M33.916004,54.909424 
	C33.479118,55.172878 33.067898,55.084618 32.340652,55.004288 
	C31.033541,53.218952 31.676594,51.933502 33.289154,50.869129 
	C34.513271,51.969028 33.769611,53.346382 33.916004,54.909424 
z"/>
<path fill="#0A0A0C" opacity="1.000000" stroke="none" 
	d="
M42.272385,87.249008 
	C41.892887,87.437965 42.029037,87.378937 42.057915,87.447411 
	C41.836834,87.213608 41.586868,86.911331 41.182724,86.358353 
	C42.116165,85.418694 43.203785,84.729736 44.587795,83.887108 
	C44.924061,84.529968 44.963936,85.326500 44.993565,86.521362 
	C44.767246,87.288429 44.551174,87.657181 44.178993,88.309601 
	C44.022884,88.593277 43.741165,88.335381 43.868309,88.192886 
	C43.641056,87.593483 43.193188,87.263390 42.272385,87.249008 
z"/>
<path fill="#5C4A7D" opacity="1.000000" stroke="none" 
	d="
M73.935265,22.643461 
	C73.898491,23.131115 73.637947,23.344872 73.201950,23.740643 
	C71.440041,24.995842 70.126381,23.665468 68.332611,23.262175 
	C67.557800,22.751215 67.245544,22.329000 66.975662,21.429256 
	C66.970917,20.763437 67.027176,20.498262 67.309349,19.894270 
	C67.765106,19.410822 67.994965,19.266193 68.630592,19.085728 
	C70.594749,20.156446 72.153122,21.263004 73.935265,22.643461 
z"/>
<path fill="#517686" opacity="1.000000" stroke="none" 
	d="
M62.488091,88.205994 
	C63.012787,88.004021 63.228336,88.003738 63.766617,88.023102 
	C63.510048,89.516731 64.477089,91.348755 62.760338,92.971649 
	C61.629093,91.442230 61.900673,89.925629 62.488091,88.205994 
z"/>
<path fill="#544A69" opacity="1.000000" stroke="none" 
	d="
M30.001133,34.280930 
	C30.338753,34.017967 30.559162,34.075195 31.109304,34.222012 
	C30.996571,36.048023 31.474508,37.682568 32.002312,39.680061 
	C28.414875,39.360371 29.761541,36.741558 30.001133,34.280930 
z"/>
<path fill="#695A86" opacity="1.000000" stroke="none" 
	d="
M37.168045,97.307358 
	C38.371292,96.997566 39.748917,96.983040 41.539097,96.969742 
	C41.543625,97.846275 41.135597,98.721573 40.527725,99.813904 
	C39.887356,98.539619 38.756912,97.896507 37.168045,97.307358 
z"/>
<path fill="#78699C" opacity="1.000000" stroke="none" 
	d="
M44.878860,22.218105 
	C45.631153,21.928333 45.992290,21.943928 46.624634,21.965382 
	C46.849468,23.197836 46.803097,24.424433 46.454185,25.864920 
	C46.151649,26.078812 45.653492,26.065559 45.404541,26.055210 
	C43.869175,25.072826 43.841835,23.861990 44.878860,22.218105 
z"/>
<path fill="#1B7EAD" opacity="1.000000" stroke="none" 
	d="
M91.016739,56.007133 
	C91.028313,54.222557 92.254074,53.252533 93.971382,52.308235 
	C95.715805,54.959343 94.912827,56.377804 91.760239,56.485504 
	C91.358498,56.308201 91.130577,56.107582 91.016739,56.007133 
z"/>
<path fill="#6E599E" opacity="1.000000" stroke="none" 
	d="
M60.913063,27.012917 
	C60.991402,28.018990 61.016212,28.700439 61.033287,29.722832 
	C60.799465,30.341297 60.573376,30.618818 60.184074,31.109921 
	C58.743290,30.523195 59.496441,29.045624 58.773056,27.677422 
	C58.797565,27.169170 58.965664,26.996098 59.385567,26.563087 
	C60.086323,26.299650 60.493702,26.428051 60.913063,27.012917 
z"/>
<path fill="#0E0C0F" opacity="1.000000" stroke="none" 
	d="
M68.917549,18.826111 
	C68.889633,19.238533 68.742889,19.427179 68.334732,19.861135 
	C67.140762,20.275417 66.250725,20.269833 65.305183,19.251255 
	C65.381203,18.514406 65.700768,18.018147 66.139473,17.245193 
	C67.298347,17.213011 68.193176,17.682804 68.917549,18.826111 
z"/>
<path fill="#6C5A8E" opacity="1.000000" stroke="none" 
	d="
M35.694977,26.943680 
	C35.999641,27.458353 35.996006,27.830275 35.990898,28.481148 
	C33.791874,29.812778 32.724983,28.988947 32.792587,26.324371 
	C33.036438,25.961786 32.985077,26.019865 32.959957,26.049423 
	C33.949398,25.649633 34.652367,26.278492 35.694977,26.943680 
z"/>
<path fill="#0E0C0F" opacity="1.000000" stroke="none" 
	d="
M44.314232,12.972456 
	C44.667099,13.121721 44.750572,13.290388 44.959866,13.711292 
	C44.391785,15.510046 43.416672,15.027696 42.230042,14.054573 
	C42.713478,13.513997 43.379158,13.252928 44.314232,12.972456 
z"/>
<path fill="#0A0A0C" opacity="1.000000" stroke="none" 
	d="
M20.971420,16.929506 
	C21.307440,16.865673 21.689970,16.867653 21.834530,16.992916 
	C20.890507,17.691986 19.801924,18.265795 18.406452,18.902107 
	C18.099564,18.964609 18.028860,18.953926 18.034298,18.918568 
	C18.521811,17.727016 19.489100,17.237247 20.971420,16.929506 
z"/>
<path fill="#080709" opacity="1.000000" stroke="none" 
	d="
M36.028637,84.999924 
	C35.354305,84.881668 34.967117,84.598579 35.259949,84.046371 
	C35.352463,83.871925 35.879261,83.743965 36.078579,83.846054 
	C36.581158,84.103462 36.628914,84.539902 36.028637,84.999924 
z"/>
<path fill="#0F0E11" opacity="1.000000" stroke="none" 
	d="
M16.121878,26.114948 
	C16.436949,25.664320 16.924021,25.370041 17.716726,25.074223 
	C17.978914,25.690517 18.171516,26.554979 17.840219,26.872068 
	C17.249180,27.437759 16.777557,26.609257 16.121878,26.114948 
z"/>
<path fill="#436371" opacity="1.000000" stroke="none" 
	d="
M70.817627,82.156319 
	C70.956818,82.948586 70.857857,83.733643 70.607346,84.776794 
	C70.093681,84.055679 69.846893,83.081406 70.817627,82.156319 
z"/>
<path fill="#060506" opacity="1.000000" stroke="none" 
	d="
M73.138107,17.184723 
	C72.975754,17.177616 72.878983,17.112200 72.782219,17.046780 
	C72.922707,17.073322 73.063202,17.099867 73.138107,17.184723 
z"/>
<path fill="#060506" opacity="1.000000" stroke="none" 
	d="
M76.141205,19.187920 
	C75.977531,19.180946 75.879974,19.115097 75.782417,19.049248 
	C75.924049,19.075846 76.065681,19.102444 76.141205,19.187920 
z"/>
<path fill="#050405" opacity="1.000000" stroke="none" 
	d="
M35.242630,9.243670 
	C35.117973,8.979946 35.152340,8.782974 35.229000,8.289098 
	C35.580589,8.319079 35.889893,8.645966 36.199192,8.972852 
	C35.933346,9.085375 35.667500,9.197899 35.242630,9.243670 
z"/>
<path fill="#060506" opacity="1.000000" stroke="none" 
	d="
M55.841984,21.298092 
	C55.844311,21.880457 55.665928,22.725246 55.248466,23.794313 
	C55.226681,23.199234 55.443977,22.379877 55.841984,21.298092 
z"/>
<path fill="#544C64" opacity="1.000000" stroke="none" 
	d="
M51.749741,9.353719 
	C52.334232,8.095519 53.201389,7.631195 53.801243,8.219852 
	C54.526844,8.931906 53.304550,9.002123 52.782166,9.545700 
	C52.242706,9.726553 51.928524,9.767963 51.749741,9.353719 
z"/>
<path fill="#060506" opacity="1.000000" stroke="none" 
	d="
M57.328926,8.543568 
	C57.401657,8.419449 57.500122,8.370959 57.598587,8.322472 
	C57.517277,8.421382 57.435966,8.520290 57.328926,8.543568 
z"/>
<path fill="#050405" opacity="1.000000" stroke="none" 
	d="
M22.654547,10.548375 
	C22.632334,10.615590 22.355297,10.420379 22.355297,10.420379 
	C22.355297,10.420379 22.676760,10.481160 22.654547,10.548375 
z"/>
<path fill="#060506" opacity="1.000000" stroke="none" 
	d="
M69.576035,14.349241 
	C69.307640,14.792905 69.291206,14.728164 69.576035,14.349241 
z"/>
<path fill="#060506" opacity="1.000000" stroke="none" 
	d="
M65.667015,11.555153 
	C65.546280,11.613482 65.449524,11.598897 65.352768,11.584312 
	C65.465508,11.550288 65.578255,11.516263 65.667015,11.555153 
z"/>
<path fill="#050405" opacity="1.000000" stroke="none" 
	d="
M19.464355,12.358168 
	C19.530577,12.336638 19.549208,12.700129 19.549208,12.700129 
	C19.549208,12.700129 19.398136,12.379697 19.464355,12.358168 
z"/>
<path fill="#050405" opacity="1.000000" stroke="none" 
	d="
M16.643902,14.436818 
	C16.665173,14.504293 16.347736,14.564993 16.347736,14.564993 
	C16.347736,14.564993 16.622631,14.369343 16.643902,14.436818 
z"/>
<path fill="#060506" opacity="1.000000" stroke="none" 
	d="
M62.528320,9.965649 
	C62.553341,9.987475 62.503300,9.943821 62.528320,9.965649 
z"/>
<path fill="#544C64" opacity="1.000000" stroke="none" 
	d="
M48.639080,12.260557 
	C48.274437,11.749574 48.226139,11.187148 48.189301,10.201563 
	C48.533077,10.335784 48.865391,10.893165 49.379227,11.724401 
	C49.358974,12.068542 49.157200,12.138828 48.639080,12.260557 
z"/>
<path fill="#544C64" opacity="1.000000" stroke="none" 
	d="
M51.167145,12.165522 
	C50.781788,12.463501 50.492981,12.435586 49.822197,12.199038 
	C49.741806,11.410186 50.043396,10.829970 50.614704,10.062279 
	C51.155010,9.829977 51.425602,9.785151 51.705303,10.151644 
	C51.564178,10.988517 51.413937,11.414072 51.167145,12.165522 
z"/>
<path fill="#080709" opacity="1.000000" stroke="none" 
	d="
M37.495171,50.293007 
	C37.607269,50.529057 37.636940,50.953323 37.736038,51.688217 
	C37.674557,51.492970 37.543652,50.987095 37.495171,50.293007 
z"/>
<path fill="#327A99" opacity="1.000000" stroke="none" 
	d="
M347.276062,71.915085 
	C347.256317,71.704971 347.474457,71.658989 347.814819,71.785217 
	C347.912628,71.847229 347.489502,71.969017 347.276062,71.915085 
z"/>
<path fill="#1B7EAD" opacity="1.000000" stroke="none" 
	d="
M94.022156,51.998367 
	C94.113098,51.652199 94.309731,51.389297 94.754242,51.077248 
	C95.002121,51.028099 95.133163,51.223465 95.195740,51.323067 
	C95.156075,51.615269 95.053825,51.807869 94.647659,52.121368 
	C94.343742,52.242275 94.127846,52.081638 94.022156,51.998367 
z"/>
<path fill="#0E0C0F" opacity="1.000000" stroke="none" 
	d="
M38.494530,11.494519 
	C38.514294,11.487410 38.474766,11.501629 38.494530,11.494519 
z"/>
<path fill="#1B7EAD" opacity="1.000000" stroke="none" 
	d="
M114.032242,67.961700 
	C114.015938,68.464012 113.832748,68.735802 113.417511,69.101807 
	C113.185478,69.196014 113.003738,68.971115 112.915413,68.856644 
	C112.845810,68.552620 112.864540,68.363060 113.090904,67.978134 
	C113.487465,67.765572 113.676407,67.748375 114.032242,67.961700 
z"/>
<path fill="#544C64" opacity="1.000000" stroke="none" 
	d="
M52.391014,9.486610 
	C52.401718,9.909579 52.223812,10.114245 51.868790,10.431051 
	C51.574757,10.449871 51.435093,10.336780 51.089928,10.049246 
	C50.967197,9.542035 51.149876,9.278521 51.658798,8.991161 
	C51.998482,9.028069 52.111816,9.158073 52.391014,9.486610 
z"/>
<path fill="#1B7EAD" opacity="1.000000" stroke="none" 
	d="
M114.993385,67.014725 
	C114.945175,67.381805 114.797882,67.675674 114.424866,68.080887 
	C114.199127,68.192223 114.024498,68.019958 113.937500,67.933502 
	C113.765434,67.468491 113.876099,67.152542 114.424347,66.845619 
	C114.692352,66.800415 114.894310,66.941521 114.993385,67.014725 
z"/>
<path fill="#060506" opacity="1.000000" stroke="none" 
	d="
M78.778046,24.431290 
	C78.921570,24.542969 78.530815,24.544264 78.530815,24.544264 
	C78.530815,24.544264 78.208687,24.323038 78.094200,24.164303 
	C78.213028,24.078888 78.431290,24.183569 78.778046,24.431290 
z"/>
<path fill="#060506" opacity="1.000000" stroke="none" 
	d="
M81.862030,24.642246 
	C81.968384,24.697893 81.507378,24.709946 81.281990,24.662098 
	C81.286972,24.518185 81.520004,24.508966 81.862030,24.642246 
z"/>
<path fill="#0E0C0F" opacity="1.000000" stroke="none" 
	d="
M40.645401,13.297333 
	C40.665363,13.404425 40.542294,13.532961 40.207764,13.824366 
	C40.057495,13.681793 40.226185,13.458974 40.645401,13.297333 
z"/>
<path fill="#020303" opacity="1.000000" stroke="none" 
	d="
M229.899536,48.472122 
	C232.347549,57.088123 229.079346,63.737381 222.511154,64.155655 
	C216.942551,64.510277 213.872559,62.174072 212.577713,56.596485 
	C211.267456,50.952435 213.647903,45.214256 218.033997,43.443855 
	C222.607330,41.597866 226.522064,43.149879 229.899536,48.472122 
z"/>
<path fill="#030304" opacity="1.000000" stroke="none" 
	d="
M71.735886,42.763390 
	C76.820297,44.639172 79.656075,47.923302 79.944893,52.804707 
	C80.228546,57.598724 78.192680,61.423775 73.397217,63.799347 
	C70.151375,65.129974 68.327042,64.842651 68.459251,60.959839 
	C68.629066,55.972507 68.528526,50.974697 68.486526,45.981907 
	C68.469841,43.999069 68.469070,42.161644 71.735886,42.763390 
z"/>
<path fill="#385A6B" opacity="1.000000" stroke="none" 
	d="
M71.844025,42.861290 
	C70.146698,43.030273 68.794037,43.619694 68.855492,46.108658 
	C68.977364,51.044258 68.944473,55.985958 68.863861,60.923313 
	C68.823975,63.366474 70.032364,64.117058 72.662880,63.917858 
	C69.652603,65.476311 67.756790,64.722473 67.840294,60.586208 
	C67.936333,55.829525 67.894768,51.069084 67.848412,46.310905 
	C67.823769,43.781513 68.412918,42.019135 71.844025,42.861290 
z"/>
<path fill="#060809" opacity="1.000000" stroke="none" 
	d="
M312.585815,65.514084 
	C309.103485,63.628765 307.956360,61.158077 309.827698,57.922768 
	C311.270325,55.428741 313.580536,54.777168 316.261536,55.855808 
	C319.129700,57.009754 319.673462,59.425354 319.039764,62.043972 
	C318.288269,65.149300 315.978882,66.148155 312.585815,65.514084 
z"/>
<path fill="#040505" opacity="1.000000" stroke="none" 
	d="
M163.171188,58.598419 
	C164.989029,55.762783 167.173737,54.654781 170.098648,55.924168 
	C172.112869,56.798321 173.064209,58.374310 173.058472,60.621529 
	C173.052078,63.138203 171.730103,64.647522 169.546432,65.469688 
	C165.729950,66.906631 163.078659,64.223434 163.171188,58.598419 
z"/>
<path fill="#0784BF" opacity="1.000000" stroke="none" 
	d="
M114.767006,66.413132 
	C114.516869,67.042099 114.333015,67.277245 113.995659,67.676453 
	C113.627922,68.051765 113.403038,68.253922 113.001472,68.597855 
	C108.100075,70.673042 103.234962,71.628616 97.691116,70.756546 
	C93.732224,66.836281 89.758118,63.182423 91.283913,56.709259 
	C92.665443,55.465790 93.630356,54.352509 94.221756,52.544544 
	C94.541534,52.053650 94.742516,51.868492 95.102509,51.554726 
	C97.681908,50.992035 100.092247,50.303036 102.531494,50.177994 
	C110.678612,49.760342 118.011673,55.822948 114.767006,66.413132 
z"/>
<path fill="#0286C4" opacity="1.000000" stroke="none" 
	d="
M141.022812,49.463337 
	C143.965805,49.030594 143.685852,47.307285 143.272446,45.348511 
	C143.062622,44.354328 143.404312,43.251709 144.559662,42.957531 
	C146.104630,42.564140 146.592361,43.750069 146.876328,44.915867 
	C147.423035,47.160263 147.595596,49.556717 149.893356,50.930511 
	C150.739563,51.436447 150.757263,51.977882 150.198654,52.922653 
	C145.802689,60.357475 145.989777,62.129490 151.683609,69.930847 
	C146.725586,71.750069 143.743561,70.011513 143.034836,65.006660 
	C142.579437,61.790787 143.920319,58.319347 141.401993,55.097687 
	C138.192245,53.280029 138.393585,51.549618 141.022812,49.463337 
z"/>
<path fill="#5C4A7D" opacity="1.000000" stroke="none" 
	d="
M48.370075,38.913471 
	C47.786110,37.158348 45.697971,35.707870 46.934017,33.260376 
	C47.622158,33.254101 48.262886,33.476601 48.785767,33.859875 
	C50.136005,34.849613 52.907070,32.139999 53.114700,35.056103 
	C53.281219,37.394878 51.254097,38.774628 48.370075,38.913471 
z"/>
<path fill="#544A69" opacity="1.000000" stroke="none" 
	d="
M42.352127,41.550358 
	C39.587494,41.844017 39.176216,39.342876 37.324844,38.084747 
	C35.322880,36.621998 36.186649,35.363537 37.370541,33.798347 
	C37.759277,33.289829 37.924362,33.091618 38.427601,32.698299 
	C39.224342,32.235691 39.713345,32.046520 40.636047,31.951460 
	C41.285934,32.079342 41.531784,32.189480 42.073658,32.579437 
	C43.807884,35.007740 43.480804,37.405739 43.228836,40.173492 
	C42.953663,40.798038 42.797024,41.025463 42.352127,41.550358 
z"/>
<path fill="#665190" opacity="1.000000" stroke="none" 
	d="
M38.764664,33.580158 
	C38.392052,35.102329 37.806843,36.235683 37.112591,37.671917 
	C32.502148,39.347980 34.186275,35.322227 33.117714,33.274994 
	C33.030384,32.927101 32.991348,32.996796 32.957169,33.017464 
	C34.836189,31.735754 36.719978,31.513792 38.764664,33.580158 
z"/>
<path fill="#685991" opacity="1.000000" stroke="none" 
	d="
M42.365517,41.928391 
	C42.081245,41.620602 42.098618,41.393375 42.134636,40.824818 
	C43.589703,39.619186 42.340282,37.373722 44.432182,36.666615 
	C45.116524,37.942482 45.477707,39.232048 46.059643,40.855247 
	C46.712097,42.432552 48.338341,44.590050 44.955616,42.888580 
	C44.229115,42.523163 43.431831,42.298470 42.365517,41.928391 
z"/>
<path fill="#151318" opacity="1.000000" stroke="none" 
	d="
M52.408890,30.953655 
	C52.717999,32.413406 51.666039,31.718904 51.076141,31.809763 
	C51.041374,31.815117 50.942173,31.402115 50.872963,31.183796 
	C51.327843,31.092667 51.782722,31.001535 52.408890,30.953655 
z"/>
<path fill="#080709" opacity="1.000000" stroke="none" 
	d="
M49.202976,45.280159 
	C49.327351,45.248135 49.636017,45.360691 50.054871,45.709965 
	C49.898071,45.784214 49.638805,45.610229 49.202976,45.280159 
z"/>
<path fill="#080709" opacity="1.000000" stroke="none" 
	d="
M49.051704,59.201191 
	C49.025612,59.335030 48.788750,59.581097 48.289845,59.820915 
	C48.290867,59.634644 48.561909,59.467560 49.051704,59.201191 
z"/>
<path fill="#0E0C0F" opacity="1.000000" stroke="none" 
	d="
M67.912613,20.701912 
	C68.507713,20.923258 68.715607,21.008944 68.999756,21.298126 
	C69.313698,22.275894 69.688148,23.091015 69.275986,24.351559 
	C68.695145,26.297407 68.462509,28.143402 66.174278,26.520948 
	C64.867485,25.594378 63.700886,24.470066 62.210716,23.218071 
	C62.141411,20.841717 64.143097,22.283203 65.156357,21.220201 
	C65.949043,20.322596 66.702621,20.181627 67.912613,20.701912 
z"/>
<path fill="#060506" opacity="1.000000" stroke="none" 
	d="
M69.370262,24.810539 
	C69.041817,23.890146 69.059959,23.071806 69.091103,21.843468 
	C70.204979,22.185549 71.305847,22.937630 72.716614,23.806183 
	C73.521782,24.503660 74.624756,24.772449 74.261528,25.757872 
	C74.174660,25.993565 73.073341,26.006435 72.494331,25.875439 
	C71.544510,25.660551 70.640297,25.244064 69.370262,24.810539 
z"/>
<path fill="#0A0A0C" opacity="1.000000" stroke="none" 
	d="
M61.138435,27.345507 
	C60.673271,27.104980 60.379955,26.872421 59.862007,26.471506 
	C59.204082,25.182516 56.646542,24.187311 59.774967,22.917961 
	C60.859379,23.939877 61.603867,24.920277 62.537865,26.143963 
	C62.726414,26.745354 62.725445,27.103455 62.188683,27.423370 
	C61.652885,27.385183 61.310287,27.353474 61.138435,27.345507 
z"/>
<path fill="#0A0A0C" opacity="1.000000" stroke="none" 
	d="
M62.458061,26.635986 
	C63.038975,26.790842 63.817028,27.077881 63.282539,27.713718 
	C63.109707,27.919329 62.474365,27.736158 61.851738,27.558006 
	C61.831505,27.218363 62.010124,27.051542 62.458061,26.635986 
z"/>
<path fill="#010101" opacity="1.000000" stroke="none" 
	d="
M45.067577,92.902245 
	C44.768364,91.905144 44.433533,90.922577 44.559273,89.687729 
	C45.782612,90.196953 46.152462,91.095238 45.919739,92.560387 
	C45.703949,93.069763 45.544868,93.202301 45.194569,93.090096 
	C45.003349,92.845360 45.031960,92.916786 45.067577,92.902245 
z"/>
<path fill="#765BB1" opacity="1.000000" stroke="none" 
	d="
M46.138779,98.198807 
	C45.920361,98.014503 45.663826,97.802505 45.453220,97.551903 
	C45.393215,97.480499 45.466640,97.296936 45.478874,97.164810 
	C45.673332,97.400673 45.867786,97.636536 46.129662,98.040016 
	C46.197086,98.207634 46.118107,98.156471 46.138779,98.198807 
z"/>
<path fill="#765BB1" opacity="1.000000" stroke="none" 
	d="
M45.102982,92.916794 
	C45.003349,92.845360 45.432030,92.913811 45.647530,92.925522 
	C45.863029,92.937233 45.539265,93.058968 45.539265,93.058968 
	C45.539265,93.058968 45.202614,92.988228 45.102982,92.916794 
z"/>
<path fill="#060506" opacity="1.000000" stroke="none" 
	d="
M68.210426,20.708809 
	C67.530090,20.926481 66.788460,20.947235 65.675690,20.972225 
	C65.185501,20.542887 65.066437,20.109312 65.004509,19.343201 
	C65.884689,19.257227 66.707741,19.503786 67.802048,19.928394 
	C68.073303,20.106443 68.149124,20.511892 68.210426,20.708809 
z"/>
<path fill="#0A0A0C" opacity="1.000000" stroke="none" 
	d="
M13.123337,24.008034 
	C12.365409,24.120600 12.100533,23.824703 12.766649,23.201525 
	C13.108754,23.354111 13.199908,23.545776 13.123337,24.008034 
z"/>
<path fill="#010101" opacity="1.000000" stroke="none" 
	d="
M13.326132,24.247852 
	C12.969320,24.092785 12.983029,23.906944 13.007168,23.441774 
	C13.390448,23.302307 13.763296,23.442171 14.136145,23.582035 
	C13.989648,23.793716 13.843151,24.005400 13.326132,24.247852 
z"/>
<path fill="#060506" opacity="1.000000" stroke="none" 
	d="
M42.515251,56.878189 
	C42.099098,54.579384 42.041801,52.267441 42.016842,49.524483 
	C46.711140,51.218323 43.589722,54.169373 42.515251,56.878189 
z"/>
<path fill="#060506" opacity="1.000000" stroke="none" 
	d="
M44.718430,36.218727 
	C43.473076,37.701088 45.369694,40.250923 42.496193,40.596443 
	C42.027069,38.341251 41.900852,36.199013 41.733444,33.708336 
	C39.978798,31.230055 41.118649,29.022297 41.581268,26.413273 
	C41.742847,23.891140 41.837212,21.790604 41.872810,19.352694 
	C41.288670,18.291203 41.181164,17.520502 41.841038,16.396946 
	C46.467999,15.732075 44.903111,18.986227 45.232063,21.507843 
	C45.188232,23.016006 45.106441,24.119270 45.090118,25.633698 
	C44.997566,29.291418 44.839542,32.537975 44.718430,36.218727 
z"/>
<path fill="#050405" opacity="1.000000" stroke="none" 
	d="
M38.925781,33.889042 
	C37.209568,33.720078 35.441879,33.471184 33.298592,33.130211 
	C33.990879,31.276491 33.235760,31.160723 31.517715,30.959845 
	C29.494518,30.723288 28.407106,28.941938 28.782921,26.980106 
	C29.177099,24.922407 30.865610,25.413115 32.676456,25.934408 
	C32.893394,27.646379 34.128281,28.140104 35.671310,28.701275 
	C37.047718,28.855484 38.105999,28.950867 39.560165,29.101124 
	C40.367161,29.391050 40.664951,29.723770 40.845390,30.515919 
	C40.697540,31.829966 39.888916,32.396828 39.156895,33.397667 
	C38.893208,33.619915 38.874302,33.809113 38.925781,33.889042 
z"/>
<path fill="#544A69" opacity="1.000000" stroke="none" 
	d="
M39.625534,31.545940 
	C39.551872,30.813366 39.682556,30.343445 39.884640,29.514761 
	C40.409500,28.266829 40.862957,27.377661 41.482445,26.240086 
	C41.719296,28.185108 41.790115,30.378538 41.776588,32.965931 
	C41.530785,33.266453 41.369324,33.173016 40.971981,32.929039 
	C40.401386,32.485691 40.097740,32.163860 39.625534,31.545940 
z"/>
<path fill="#010101" opacity="1.000000" stroke="none" 
	d="
M40.346405,18.466377 
	C39.306446,20.144808 37.864510,20.369898 37.428707,19.309568 
	C36.715221,17.573622 37.826496,16.061943 39.767242,15.321605 
	C40.498070,16.356775 40.634102,17.123072 40.346405,18.466377 
z"/>
<path fill="#695A86" opacity="1.000000" stroke="none" 
	d="
M40.395973,19.006172 
	C40.095024,18.256641 40.077690,17.503571 40.116348,16.187326 
	C40.172337,15.624155 40.151249,15.699941 40.150894,15.659662 
	C40.587196,15.738246 41.023857,15.857106 41.793533,16.036886 
	C42.062160,16.828344 41.997772,17.558886 41.873718,18.652374 
	C41.435894,19.011091 41.057739,19.006859 40.395973,19.006172 
z"/>
<path fill="#080709" opacity="1.000000" stroke="none" 
	d="
M28.362186,24.044783 
	C28.056717,23.773388 28.034517,23.312843 28.011940,22.506668 
	C28.179815,22.112709 28.348070,22.064377 28.778553,22.000614 
	C28.909004,22.608667 28.777231,23.232149 28.362186,24.044783 
z"/>
<path fill="#07090A" opacity="1.000000" stroke="none" 
	d="
M161.386658,91.385689 
	C159.440536,89.161285 159.135361,87.181892 161.830063,86.012299 
	C163.579391,85.253029 165.396057,86.079422 165.571487,88.047035 
	C165.789627,90.494064 164.596481,92.165710 161.386658,91.385689 
z"/>
<path fill="#010101" opacity="1.000000" stroke="none" 
	d="
M41.960491,88.058334 
	C42.372906,87.536621 42.852921,87.635277 43.664192,87.892166 
	C43.552162,88.925209 42.942356,89.278610 41.960491,88.058334 
z"/>
<path fill="#07090A" opacity="1.000000" stroke="none" 
	d="
M104.610268,65.730042 
	C100.144432,65.854401 97.992729,63.797901 98.364891,59.714504 
	C98.601189,57.121700 100.446083,55.507561 103.041252,55.350777 
	C105.550301,55.199196 107.581741,56.267529 108.340805,58.905666 
	C109.273643,62.147709 108.040672,64.354439 104.610268,65.730042 
z"/>
<path fill="#0F0E11" opacity="1.000000" stroke="none" 
	d="
M39.333454,31.505505 
	C39.825340,31.603535 40.229488,31.923782 40.684868,32.511265 
	C40.294926,33.048733 39.853752,33.318966 39.152893,33.604557 
	C39.010708,32.989185 39.128212,32.358456 39.333454,31.505505 
z"/>
</svg>