<?xml version="1.0" standalone="no"?>
<!DOCTYPE svg PUBLIC "-//W3C//DTD SVG 20010904//EN"
 "http://www.w3.org/TR/2001/REC-SVG-20010904/DTD/svg10.dtd">
<svg version="1.0" xmlns="http://www.w3.org/2000/svg"
 width="360.000000pt" height="108.000000pt" viewBox="0 0 360.000000 108.000000"
 preserveAspectRatio="xMidYMid meet">
<metadata>
Created by potrace 1.16, written by Peter Selinger 2001-2019
</metadata>
<g transform="translate(0.000000,108.000000) scale(0.100000,-0.100000)"
fill="#000000" stroke="none">
<path d="M3310 728 c-1 -13 -1 -97 -1 -188 l0 -165 36 -3 35 -3 0 190 0 191
-35 0 c-29 0 -35 -4 -35 -22z"/>
<path d="M3420 559 l0 -190 35 3 c20 2 35 6 35 11 0 4 0 88 0 187 l0 180 -35
0 -35 0 0 -191z"/>
<path d="M600 732 c-6 -2 -10 -74 -10 -184 l0 -181 78 5 c123 7 192 59 208
154 11 69 -30 153 -90 187 -20 11 -165 26 -186 19z m124 -76 c18 -8 41 -24 50
-37 18 -27 21 -87 5 -122 -12 -28 -58 -57 -88 -57 -20 0 -21 5 -21 115 0 72 4
115 10 115 6 0 26 -6 44 -14z"/>
<path d="M2135 726 c-40 -17 -94 -80 -102 -117 -4 -21 -9 -27 -16 -20 -16 16
-59 13 -84 -4 -17 -12 -23 -12 -32 -1 -6 7 -23 13 -38 12 l-28 -1 -3 -113 -3
-113 38 3 37 3 -3 58 c-3 78 17 112 64 104 27 -4 34 -1 43 16 8 19 10 16 17
-26 15 -94 87 -157 182 -157 62 0 110 26 148 79 26 37 30 51 29 106 0 51 -6
71 -27 103 -46 70 -147 101 -222 68z m104 -67 c58 -21 80 -112 42 -176 -23
-36 -50 -47 -95 -39 -45 9 -67 36 -73 90 -7 60 12 105 51 122 38 16 36 16 75
3z"/>
<path d="M2795 721 c-103 -47 -142 -149 -95 -247 38 -77 134 -119 232 -100 56
11 62 19 43 55 -13 27 -20 31 -38 24 -69 -25 -141 6 -165 69 -26 69 27 139
106 140 21 0 48 -3 60 -6 17 -6 24 -1 37 24 l16 31 -35 14 c-48 20 -113 18
-161 -4z"/>
<path d="M1400 640 c0 -29 -4 -40 -15 -40 -10 0 -15 -10 -15 -30 0 -19 5 -30
14 -30 10 0 15 -18 18 -64 5 -80 24 -106 79 -106 21 0 40 4 43 8 9 16 -6 50
-24 55 -14 3 -19 17 -21 56 -4 47 -2 51 19 51 18 0 22 6 22 31 0 26 -3 31 -20
26 -18 -5 -20 0 -20 39 l0 44 -40 0 -40 0 0 -40z"/>
<path d="M965 591 c-60 -27 -90 -104 -61 -159 47 -90 215 -81 246 13 26 79
-24 146 -112 152 -29 1 -62 -1 -73 -6z"/>
<path d="M1216 569 c-86 -75 -35 -199 82 -199 61 0 73 7 60 35 -9 19 -18 24
-46 23 -39 -1 -62 20 -62 58 0 32 26 54 65 54 26 0 35 5 40 21 9 28 -8 39 -62
39 -33 0 -50 -7 -77 -31z"/>
<path d="M1604 586 c-69 -30 -87 -120 -36 -177 50 -56 165 -51 212 9 24 30 26
98 4 130 -34 49 -115 66 -180 38z"/>
<path d="M2417 593 c-2 -5 -3 -55 -2 -113 l3 -105 36 -3 36 -3 0 74 c0 59 4
77 18 90 23 21 36 21 56 1 12 -11 16 -36 16 -90 l0 -74 35 0 35 0 0 94 c0 90
-1 96 -26 115 -32 25 -81 27 -112 5 -20 -14 -22 -14 -22 0 0 12 -10 16 -34 16
-19 0 -37 -3 -39 -7z"/>
<path d="M3040 573 c-57 -51 -47 -163 16 -192 35 -16 86 -14 112 5 20 14 22
14 22 0 0 -12 10 -16 35 -16 l35 0 0 115 0 115 -34 0 c-19 0 -36 -5 -38 -11
-3 -9 -9 -9 -25 0 -39 20 -90 13 -123 -16z"/>
</g>
</svg>
